<svg width="337" height="333" viewBox="0 0 337 333" fill="none" xmlns="http://www.w3.org/2000/svg">
<path d="M39.1542 154.342C39.6025 154.621 40.2632 155.022 41.1506 155.544C42.8979 156.604 45.5526 158.043 49.0259 159.797C55.9891 163.224 66.4004 167.727 79.9734 170.933C86.7521 172.523 94.3166 173.741 102.504 174.215C110.683 174.682 119.492 174.397 128.618 172.989C137.739 171.603 147.118 169.188 156.727 166.456C166.343 163.73 176.209 160.678 186.497 158.296C196.778 155.907 206.951 154.119 216.855 153.176C221.807 152.697 226.684 152.407 231.467 152.314C236.249 152.206 240.932 152.359 245.49 152.654C254.612 153.25 263.208 154.678 271.18 156.326C276.837 157.506 282.174 158.79 287.199 160.063C289.666 160.706 292.355 161.4 295.211 162.148C309.131 165.838 320.137 168.754 327.301 170.647C327.838 170.992 328.426 171.354 329.05 171.722C329.871 172.198 330.682 172.626 331.445 172.971C332.222 173.301 332.945 173.557 333.59 173.675C334.866 173.941 335.686 173.787 335.696 173.595C335.7 173.545 335.662 173.498 335.602 173.445C335.688 173.454 335.773 173.463 335.865 173.465L336.377 173.492L335.949 173.191C335.757 173.06 335.536 172.917 335.279 172.755C336.178 172.993 336.653 173.122 336.653 173.122C336.653 173.122 336.149 172.981 335.191 172.704C334.464 172.257 333.49 171.712 332.261 171.153C331.155 170.65 329.85 170.145 328.377 169.65C328.049 169.492 327.721 169.334 327.401 169.197C326.625 168.88 325.896 168.646 325.265 168.513C324.956 168.439 324.664 168.406 324.414 168.371C324.321 168.355 324.229 168.354 324.143 168.345C319.309 166.947 313.5 165.336 307.265 163.708C297.577 161.175 288.756 159.066 282.344 157.682C280.185 157.22 278.307 156.833 276.752 156.533C275 156.111 273.219 155.704 271.404 155.307C263.42 153.568 254.783 152.051 245.585 151.373C240.997 151.038 236.27 150.859 231.45 150.933C226.631 151.008 221.716 151.265 216.722 151.732C206.738 152.644 196.5 154.415 186.157 156.828C175.806 159.221 165.906 162.296 156.318 165.035C146.732 167.787 137.431 170.204 128.404 171.62C119.385 173.044 110.678 173.379 102.573 172.964C94.4603 172.557 86.9564 171.406 80.2101 169.886C66.71 166.837 56.2944 162.505 49.2779 159.258C45.7813 157.591 43.09 156.253 41.2978 155.273C40.3987 154.794 39.6981 154.438 39.2382 154.203C38.7783 153.967 38.5243 153.862 38.5043 153.884C38.4919 153.913 38.706 154.064 39.1542 154.342ZM325.051 169.822C324.504 169.669 323.935 169.511 323.359 169.346C324.084 169.524 324.781 169.689 325.463 169.854C325.794 169.934 326.11 170.015 326.427 170.096C326.537 170.168 326.647 170.239 326.758 170.311C326.217 170.151 325.648 169.992 325.051 169.822ZM335.174 173.144C335.11 173.14 335.046 173.137 334.982 173.134C334.692 173.009 334.329 172.86 333.9 172.665C333.543 172.509 333.15 172.319 332.733 172.096C332.798 172.113 332.863 172.131 332.927 172.148C333.841 172.506 334.59 172.852 335.174 173.144Z" fill="#889C9D"/>
<path d="M37.2251 167.473C53.5656 175.526 69.5159 163.926 83.5596 170.605C83.1499 169.892 82.7186 169.173 82.2665 168.463C77.744 167.181 73.1273 166.351 68.2923 166.519C58.0724 166.9 47.0504 170.422 37.2251 167.473Z" fill="#C3D3E1"/>
<path d="M57.2124 174.167C55.9597 174.552 54.7411 175.033 53.5705 175.611C51.0791 176.861 48.4557 179.01 46.9599 180.33C52.3669 178.181 58.239 177.21 63.978 176.388C61.8688 178.366 60.0135 180.691 57.8861 182.599C61.6573 180.213 65.6914 177.351 69.9316 175.235C74.4128 172.999 79.1408 171.598 84.0415 172.44C84.1869 172.382 84.3331 172.338 84.4785 172.28C84.1841 171.723 83.8681 171.161 83.5521 170.598C73.2383 165.7 61.9021 170.644 50.1322 170.435C46.4599 171.597 42.7164 172.509 38.8587 172.796C44.9201 173.988 51.0763 173.886 57.2124 174.167Z" fill="#9EB4CC"/>
<path d="M37.5007 163.193C31.5123 163.257 25.5193 162.635 19.6923 161.209C27.9516 166.099 37.3694 167.642 46.7271 168.635C53.8608 168.533 61.2673 166.785 68.2856 166.526C73.1199 166.345 77.7374 167.189 82.2599 168.47C82.1819 168.347 82.104 168.224 82.026 168.101C80.2534 167.581 78.5124 166.875 76.8049 165.89C48.9155 149.844 53.1873 155.348 41.9971 153.044C44.5396 155.602 48.0993 158.476 50.1617 160.085C43.6327 157.914 36.625 157.138 29.8789 158.67C32.3067 160.35 34.9233 161.742 37.5007 163.193Z" fill="#869FBA"/>
<path d="M21.5254 150.939C23.9208 151.572 26.108 153.01 27.603 154.97C18.9087 154.179 10.0608 155.5 1.77163 158.269C9.03601 162.125 16.1504 166.692 24.2751 168.409C21.7049 168.303 19.1316 167.9 16.5967 167.303C19.9098 169.958 23.7158 172.195 27.7831 173.567C24.7272 173.39 21.6857 172.851 18.6875 172.083C19.9484 173.915 21.5399 175.587 23.4144 176.519C22.5259 176.344 21.6299 176.283 20.7255 176.321C28.5643 181.653 37.0108 187.084 45.6014 185.6C45.7526 187.596 44.26 189.092 42.5684 190.21C50.1228 189.425 58.0151 187.628 64.8848 184.197C68.5883 182.353 71.995 180.03 74.8938 177.135C76.7357 176.044 78.5761 174.924 80.5034 173.962C81.6458 173.386 82.8204 172.879 84.0556 172.439C79.1541 171.583 74.4336 172.99 69.9457 175.234C65.6988 177.357 61.6714 180.212 57.9002 182.598C60.0276 180.69 61.883 178.365 63.9922 176.387C58.2531 177.209 52.3736 178.174 46.974 180.329C48.4773 179.016 51.0932 176.86 53.5847 175.61C54.7619 175.025 55.9805 174.543 57.2265 174.166C51.0904 173.885 44.9342 173.987 38.8728 172.795C42.7238 172.515 46.4666 171.589 50.1464 170.434C45.892 170.355 41.5775 169.607 37.2317 167.465C40.3029 168.392 43.4924 168.674 46.7412 168.634C37.3836 167.64 27.9657 166.098 19.7064 161.208C25.5268 162.641 31.5189 163.249 37.5074 163.185C34.9374 161.741 32.3134 160.342 29.8856 158.662C36.6317 157.13 43.6393 157.906 50.1683 160.077C48.1059 158.469 44.5463 155.594 42.0037 153.036C53.2014 155.347 48.9221 149.837 76.8116 165.882C78.5191 166.867 80.2533 167.581 82.0326 168.094C74.5806 156.492 61.7885 145.265 47.6859 148.308C49.1436 149.137 50.9182 150.302 51.6869 151.829C51.7192 151.898 51.7515 151.967 51.7764 152.03C43.8793 145.936 31.5204 148.148 21.5254 150.939Z" fill="#8FA6C1"/>
<path d="M12.5731 166.198C13.9329 166.927 15.4304 167.711 17.1081 168.549C17.0929 168.897 16.6574 169.326 14.8887 170.214C14.5722 170.374 14.2407 170.521 13.901 170.647C13.513 170.797 13.1168 170.926 12.7198 171.042C15.303 172.592 17.9748 174.448 20.7255 176.321C21.6299 176.283 22.5334 176.351 23.4144 176.519C21.5324 175.58 19.9409 173.909 18.6875 172.083C21.6856 172.851 24.7272 173.39 27.7831 173.567C23.7091 172.203 19.9098 169.958 16.5967 167.303C19.1316 167.9 21.7115 168.295 24.2751 168.409C16.1504 166.692 9.03601 162.125 1.77163 158.269C1.54237 158.346 1.3131 158.423 1.08384 158.5C2.61071 160.034 5.60516 162.445 12.5731 166.198Z" fill="#A5B8CD"/>
<path d="M184.197 158.083C184.263 157.994 184.328 157.905 184.387 157.824C184.313 157.892 184.254 157.959 184.18 158.027C184.188 158.048 184.189 158.062 184.197 158.083Z" fill="#F6F8FC"/>
<path d="M184.197 158.083C179.68 164.33 172.852 169.458 165.188 173.359C162.046 176.828 159.644 181.331 159.246 186.064C168.774 173.271 179.529 169.793 184.498 161.189C184.515 160.749 184.518 160.309 184.505 159.857C184.492 159.255 184.373 158.667 184.197 158.083Z" fill="#8FA6C1"/>
<path d="M184.18 158.027C183.55 158.644 182.905 159.248 182.245 159.839C182.905 159.248 183.55 158.644 184.18 158.027Z" fill="#F6F8FC"/>
<path d="M182.245 159.839C181.962 160.096 181.673 160.361 181.383 160.612C181.106 160.847 180.83 161.083 180.553 161.318C176.585 164.708 172.23 167.659 167.62 170.236C167.593 170.252 167.572 170.26 167.545 170.276C166.371 170.932 165.183 171.56 163.979 172.176C163.931 172.2 163.889 172.216 163.848 172.247C163.264 172.543 162.671 172.832 162.085 173.114C161.941 173.186 161.789 173.252 161.644 173.324C160.666 173.792 159.672 174.246 158.67 174.68C158.408 174.794 158.139 174.916 157.876 175.03C157.482 175.202 157.074 175.374 156.681 175.546C156.57 175.595 156.446 175.645 156.328 175.687C155.968 175.835 155.615 175.976 155.248 176.118C154.479 176.425 153.703 176.725 152.934 177.017C152.546 177.167 152.151 177.311 151.755 177.454C151.298 177.622 150.826 177.791 150.368 177.959C149.667 178.206 148.966 178.452 148.264 178.684C147.688 178.88 147.11 179.062 146.533 179.245C146.172 179.365 145.817 179.477 145.448 179.591C144.947 179.747 144.432 179.905 143.924 180.055C143.43 180.204 142.928 180.346 142.426 180.489C142.029 180.604 141.632 180.719 141.242 180.827C140.322 181.078 139.401 181.33 138.48 181.568C143.691 180.918 149.254 179.632 154.741 177.755C157.97 176.654 161.159 175.343 164.231 173.833C164.547 173.673 164.865 173.527 165.174 173.36C172.845 169.465 179.665 164.331 184.183 158.083C184.175 158.063 184.174 158.048 184.165 158.028C183.55 158.644 182.905 159.248 182.245 159.839Z" fill="#C3D3E1"/>
<path d="M158.699 164.691C158.43 164.692 157.304 164.68 156.045 164.604C159.553 165.598 163.851 167.296 164.178 169.515C156.551 169.526 148.673 166.945 145.674 163.591C145.665 163.691 145.656 163.777 145.662 163.875C145.792 168.557 148.729 171.8 151.261 172.956C148.931 173.212 146.601 173.468 144.268 173.532C142.33 173.588 137.918 173.476 134.821 172.834C137.211 174.466 141.601 177.25 145.466 177.465C143.326 178.29 139.75 179.405 133.3 179.581C128.577 179.713 126.838 179.41 124.711 178.896C127.336 179.814 130.686 180.667 135.622 180.537C139.243 180.44 144.384 179.553 148.285 178.675C148.987 178.443 149.688 178.197 150.389 177.951C150.854 177.789 151.312 177.621 151.776 177.446C152.172 177.302 152.56 177.152 152.955 177.009C153.724 176.716 154.5 176.416 155.269 176.109C155.628 175.961 155.989 175.827 156.348 175.678C156.473 175.629 156.584 175.58 156.708 175.53C157.109 175.365 157.503 175.194 157.904 175.029C158.167 174.914 158.436 174.792 158.699 174.678C159.693 174.238 160.68 173.791 161.673 173.322C161.817 173.25 161.969 173.185 162.114 173.113C162.706 172.823 163.292 172.541 163.877 172.245C163.925 172.221 163.966 172.205 164.007 172.174C165.204 171.566 166.4 170.93 167.573 170.274C167.6 170.258 167.621 170.25 167.648 170.234C171.311 168.18 174.813 165.901 178.092 163.345C176.733 162.617 171.143 162.715 170.485 162.732C163.859 162.911 161.443 164.617 158.699 164.691Z" fill="#AFC3D5"/>
<path d="M135.378 158.509C132.35 159.669 129.413 160.938 126.636 162.267C127.879 162.33 129.168 162.701 130.105 163.454C123.862 165.248 118.015 168.718 113.009 173.017C117.594 171.342 121.902 169.42 125.401 169.174C126.442 169.178 127.128 169.279 127.645 169.405C123.556 170.585 119.242 175.701 117.136 178.472C119.819 180.633 122.507 182.772 126.016 183.432C123.763 183.18 121.422 182.998 119.103 183.061C116.288 183.14 113.516 183.577 110.994 184.665C112.759 186.036 114.741 187.118 116.886 187.822C107.054 188.414 98.9439 195.494 93.1946 195.65C93.0318 195.653 92.869 195.655 92.7054 195.643C92.6282 195.655 92.5518 195.681 92.4679 195.7C98.4613 197.795 104.86 198.699 111.239 198.527C115.751 198.406 120.253 197.741 124.598 196.575C125.176 196.421 125.754 196.239 126.332 196.071C125.46 197.637 124.431 199.078 123.157 200.314C122.656 201.072 122.059 201.773 121.393 202.371C121.896 202.377 122.399 202.384 122.908 202.368C133.6 202.073 144.418 197.953 152.469 190.835C153.451 191.522 154.344 192.879 154.387 194.591C154.407 195.425 154.251 196.277 153.951 197.095C165.891 189.128 183.966 177.291 184.499 161.203C179.53 169.807 168.775 173.286 159.247 186.078C159.645 181.345 162.047 176.842 165.189 173.373C164.872 173.533 164.562 173.686 164.246 173.846C160.319 176.978 156.418 184.082 150.277 186.153C151.547 184.485 152.65 182.736 153.871 181.078C149.9 183.674 145.494 185.63 140.863 186.381C145.996 184.39 150.965 181.651 154.762 177.761C149.276 179.638 143.712 180.924 138.502 181.574C139.423 181.336 140.343 181.084 141.263 180.833C141.654 180.725 142.051 180.61 142.448 180.495C142.95 180.352 143.444 180.203 143.946 180.061C144.454 179.911 144.955 179.754 145.47 179.597C145.832 179.491 146.193 179.371 146.555 179.25C147.132 179.068 147.709 178.886 148.286 178.69C144.378 179.575 139.244 180.454 135.623 180.551C130.687 180.682 127.337 179.828 124.712 178.911C126.839 179.425 128.584 179.72 133.301 179.595C139.751 179.419 143.327 178.305 145.467 177.479C141.602 177.264 137.211 174.481 134.822 172.849C137.919 173.491 142.331 173.603 144.269 173.547C146.602 173.482 148.938 173.219 151.261 172.971C148.729 171.815 145.793 168.571 145.663 163.89C145.657 163.791 145.666 163.705 145.675 163.606C148.682 166.966 156.552 169.54 164.179 169.529C163.853 167.324 159.547 165.619 156.046 164.618C157.298 164.702 158.432 164.721 158.7 164.705C161.444 164.631 163.867 162.932 170.458 162.748C171.115 162.731 176.705 162.633 178.065 163.361C178.905 162.703 179.737 162.025 180.554 161.333C180.831 161.097 181.107 160.861 181.384 160.626C181.674 160.375 181.963 160.111 182.246 159.853C182.898 159.256 183.55 158.658 184.18 158.041C184.094 157.777 184.008 157.513 183.901 157.257C181.569 155.997 179.118 155.02 176.597 154.302C172.023 152.988 167.206 152.489 162.305 152.625C153.232 152.861 143.893 155.245 135.378 158.509Z" fill="#9EB4CC"/>
<path d="M138.505 126.376C127.104 118.113 114.054 113.07 100.3 113.451C98.6807 113.495 97.0588 113.617 95.4268 113.811C97.5156 114.653 99.4497 115.759 101.152 117.141C100.887 117.093 100.622 117.044 100.357 116.996C103.309 118.298 105.658 119.599 106.272 120.668C106.296 120.702 106.305 120.737 106.321 120.779C106.329 120.8 106.338 120.82 106.346 120.841C106.395 120.952 106.416 121.064 106.422 121.177C106.422 121.177 106.422 121.177 106.423 121.191C102.055 118.052 93.8391 117.941 88.7193 118.082C88.1819 118.099 87.6521 118.123 87.1222 118.147C89.8889 118.709 93.1204 119.59 94.067 120.768C90.4139 119.578 86.6739 119.086 84.8635 119.135C83.1311 119.186 81.46 119.559 79.7574 119.757C83.5803 120.336 88.1568 122.79 89.9855 124.886C80.8843 118.672 75.4527 122.472 69.4368 119.379C74.8648 124.546 80.8982 129.89 87.7204 132.108C87.5707 132.336 87.4069 132.565 87.2282 132.781C91.1189 135.013 95.5213 136.911 101.364 137.025C100.226 137.296 98.8992 137.508 97.4566 137.549C96.2823 137.575 94.7469 137.48 93.2074 137.314C96.107 138.824 98.8022 140.474 104.948 140.308C106.242 140.269 107.173 140.215 107.856 140.14C106.82 140.837 105.731 141.354 104.61 141.695C105.328 141.731 106.009 141.748 106.568 141.737C109.078 141.669 112.042 140.987 114.445 139.552C113.31 140.63 111.53 141.938 109.869 142.976C109.904 142.967 109.939 142.958 109.982 142.956C110.199 143.658 110.324 144.345 110.347 144.981C110.486 150.059 104.818 152.832 100.334 154.785C108.71 156.19 117.528 157.158 126.3 157.095C129.213 157.974 132.254 158.392 135.385 158.515C143.79 155.3 152.995 152.931 161.952 152.631C159.388 152.036 155.379 151.908 153.618 151.96C149.368 152.072 142.739 152.691 138.086 154.279C139.996 153.275 142.98 152.089 145.784 151.331C139.981 151.428 132.962 150.695 129.795 150.312C130.849 150.3 132.03 150.267 133.396 150.237C134.754 150.201 139.104 149.856 144.421 148.11C138.291 147.446 130.148 147.975 122.35 145.907C126.355 146.326 129.649 146.46 132.011 146.394C135.568 146.294 137.283 145.585 138.568 145.029C132.567 140.851 126.429 139.55 117.595 139.411C119.015 139.336 120.93 139.26 123.666 139.179C124.833 139.147 128.794 139.059 131.641 139.169C127.132 137.151 121.303 135.442 115.986 134.256C116.028 134.254 116.085 134.25 116.127 134.248C119.323 134.162 121.936 134.144 124.127 134.18C122.397 133.792 120.649 133.454 118.878 133.203C119.288 133.179 119.69 133.149 120.1 133.139C120.277 133.136 120.475 133.139 120.674 133.141C116.427 132.226 112.099 131.734 107.772 131.857C106.895 131.88 106.013 131.938 105.132 132.011C108.625 131.425 112.193 131.027 115.75 130.927C119.222 130.831 122.683 131.02 126.079 131.581C122.055 129.002 118.304 125.877 113.889 124.129C123.315 125.437 132.983 128.488 140.44 134.444C137.964 131.075 134.769 128.392 131.652 125.697C138.503 127.552 144.481 131.95 149.63 136.949C149.848 136.179 149.93 135.395 149.906 134.624C149.837 132.206 148.783 129.795 147.694 127.5C150.196 130.343 152.173 131.822 153.865 135.23C155.991 139.505 157.163 144.324 160.16 148.011C162.777 149.523 165.348 151.102 167.816 152.751C170.826 152.98 173.766 153.482 176.611 154.301C172.806 133.04 153.203 118.574 132.226 118.014C134.944 120.3 137.349 123.163 138.505 126.376Z" fill="#869FBA"/>
<path d="M154.747 177.748C150.943 181.63 145.974 184.37 140.848 186.367C145.479 185.617 149.886 183.675 153.856 181.065C152.642 182.715 151.54 184.479 150.262 186.139C156.41 184.061 160.297 176.958 164.231 173.833C161.166 175.335 157.977 176.646 154.747 177.748Z" fill="#8FA6C1"/>
<path d="M113.023 173.017C111.829 174.042 110.68 175.122 109.59 176.226C111.119 175.727 112.704 175.45 114.31 175.3C108.084 180.174 102.829 193.476 92.7195 195.643C92.8823 195.64 93.0459 195.652 93.2087 195.65C98.958 195.493 107.068 188.414 116.9 187.822C114.756 187.117 112.781 186.042 111.008 184.665C113.537 183.569 116.309 183.132 119.117 183.061C121.436 182.997 123.777 183.18 126.03 183.431C122.522 182.785 119.833 180.632 117.15 178.472C119.249 175.694 123.563 170.591 127.659 169.404C127.142 169.279 126.456 169.177 125.415 169.174C121.916 169.419 117.608 171.341 113.023 173.017Z" fill="#B9CCDC"/>
<path d="M118.857 133.197C135.465 135.612 150.448 144.197 164.968 152.612C165.911 152.635 166.855 152.672 167.795 152.745C150.774 141.395 128.939 132.895 120.078 133.133C119.675 133.136 119.265 133.159 118.857 133.197Z" fill="#C3D3E1"/>
<path d="M131.616 125.692C134.734 128.387 137.928 131.07 140.404 134.439C132.954 128.476 123.279 125.433 113.853 124.124C118.268 125.872 122.02 128.998 126.044 131.576C122.647 131.015 119.18 130.834 115.714 130.922C112.157 131.022 108.589 131.421 105.096 132.006C105.977 131.933 106.859 131.875 107.736 131.853C112.071 131.735 116.392 132.221 120.638 133.136C128.463 133.234 145.065 139.325 160.125 148.006C157.127 144.32 155.947 139.494 153.83 135.225C152.137 131.817 150.16 130.339 147.658 127.495C148.747 129.79 149.801 132.201 149.871 134.619C149.887 135.397 149.812 136.174 149.595 136.944C144.453 131.952 138.475 127.553 131.616 125.692Z" fill="#9EB4CC"/>
<path d="M115.964 134.25C121.281 135.436 127.118 137.151 131.619 139.163C128.779 139.045 124.811 139.141 123.645 139.173C120.915 139.247 119 139.322 117.574 139.405C126.407 139.544 132.538 140.838 138.547 145.023C137.262 145.579 135.54 146.295 131.989 146.388C129.627 146.454 126.333 146.32 122.328 145.901C130.126 147.969 138.283 147.439 144.399 148.104C139.082 149.85 134.732 150.195 133.374 150.231C132.016 150.268 130.835 150.301 129.773 150.306C132.947 150.681 139.966 151.414 145.762 151.325C142.959 152.083 139.975 153.269 138.064 154.273C142.711 152.693 149.34 152.074 153.597 151.954C155.357 151.902 159.36 152.038 161.93 152.625C162.05 152.625 162.17 152.611 162.29 152.611C163.182 152.588 164.074 152.593 164.96 152.605C153.175 145.781 141.099 138.847 128.087 135.175C126.77 134.806 125.433 134.472 124.098 134.168C121.921 134.131 119.301 134.141 116.098 134.235C116.063 134.244 116.013 134.24 115.964 134.25Z" fill="#7A98B4"/>
<path d="M83.1668 135.659C88.7261 140.769 97.1321 143.794 104.939 143.567C106.629 143.519 108.281 143.316 109.875 142.955C111.536 141.916 113.323 140.601 114.45 139.53C112.055 140.972 109.098 141.647 106.574 141.716C106.015 141.727 105.327 141.717 104.616 141.673C105.729 141.326 106.818 140.809 107.862 140.118C107.179 140.193 106.241 140.255 104.954 140.287C98.8081 140.452 96.1128 138.803 93.2132 137.292C94.7527 137.458 96.2956 137.56 97.4625 137.527C98.905 137.486 100.239 137.281 101.37 137.003C95.5272 136.889 91.1322 134.998 87.234 132.759C86.2174 134.037 84.7866 135.012 83.1668 135.659Z" fill="#9EB4CC"/>
<path d="M105.991 120.94L106.031 120.909L105.991 120.94L105.95 120.85L106.602 120.493C106.625 120.527 106.642 120.569 106.651 120.604C106.658 120.611 106.659 120.625 106.667 120.631L105.991 120.94Z" fill="black"/>
<path d="M106.007 120.981L106.666 120.617L106.699 120.7L106.007 120.981Z" fill="black"/>
<path d="M71.8165 117.668C70.4304 117.706 69.0419 117.702 67.6651 117.654C68.2576 118.222 68.8501 118.79 69.4575 119.371C75.466 122.457 80.8976 118.657 90.0063 124.878C88.1776 122.782 83.6011 120.327 79.7782 119.749C81.4807 119.551 83.1519 119.178 84.8843 119.127C86.6872 119.072 90.4272 119.563 94.0878 120.76C93.1411 119.582 89.9171 118.707 87.143 118.138C87.6729 118.115 88.2102 118.098 88.74 118.074C93.8599 117.933 102.076 118.044 106.444 121.183C106.444 121.183 106.444 121.183 106.443 121.169C106.436 121.056 106.408 120.937 106.367 120.833C106.359 120.812 106.35 120.791 106.342 120.771C106.325 120.729 106.31 120.702 106.293 120.66C105.671 119.584 103.329 118.289 100.378 116.988C97.1721 116.423 93.9135 116.293 90.6248 116.378C84.4029 116.569 78.0749 117.496 71.8165 117.668Z" fill="#AFC3D5"/>
<path d="M201.774 128.637C215.858 141.377 216.811 152.534 234.023 152.058C234.143 152.059 234.263 152.044 234.376 152.038C233.84 151.587 233.309 151.101 232.79 150.586C232.332 150.62 231.88 150.646 231.413 150.659C219.207 150.985 215.39 138.684 201.774 128.637Z" fill="#C3D3E1"/>
<path d="M203.304 134.86C200.707 134.168 198.009 133.814 195.301 133.894C194.961 133.899 194.623 133.919 194.277 133.946C201.061 135.996 208.782 138.692 211.304 145.53C211.317 145.621 211.322 145.706 211.327 145.804C211.328 145.819 211.33 145.847 211.331 145.861C211.331 145.875 211.333 145.903 211.335 145.932C208.75 143.992 206.049 142.123 203.071 140.972C207.048 144.445 210.523 149.279 215.79 150.447C215.229 150.55 214.68 150.61 214.143 150.627C210.657 150.724 207.476 149.137 204.41 147.439C211.183 152.598 220.228 153.568 228.637 153.462C230.573 153.151 232.494 152.678 234.383 152.031C234.262 152.03 234.143 152.044 234.03 152.051C216.817 152.526 215.858 141.377 201.781 128.63C201.063 127.978 200.303 127.328 199.514 126.665C197.778 126.164 196.012 125.756 194.231 125.47C197.707 127.748 200.312 131.754 203.304 134.86Z" fill="#8FA6C1"/>
<path d="M182.137 130.649C183.634 131.433 185.129 131.92 186.515 131.882C181.782 130.025 177.559 123.053 176.882 120.294C178.402 121.219 180.608 123.102 182.696 124.185C180.415 122.342 178.733 119.84 175.725 116.707C176.665 116.808 178.232 117.199 180.226 118.117C178.845 116.66 176.194 114.179 172.601 111.583C171.652 111.22 170.689 110.858 169.69 110.491C172.597 117.618 176.516 125.337 182.137 130.649Z" fill="#ACC2D5"/>
<path d="M172.594 111.576C176.187 114.173 178.838 116.653 180.219 118.11C178.232 117.199 176.658 116.801 175.717 116.7C178.739 119.832 180.407 122.335 182.689 124.179C180.593 123.089 178.394 121.212 176.875 120.288C177.552 123.046 181.767 130.012 186.507 131.876C185.128 131.906 183.627 131.427 182.129 130.642C183.403 131.843 184.762 132.919 186.21 133.834C185.67 133.915 185.12 133.961 184.568 133.979C183.098 134.022 181.606 133.832 180.168 133.462C184.456 137.038 189.296 140.263 194.494 142.44C193.249 142.952 191.938 143.191 190.602 143.233C189.23 143.27 187.832 143.096 186.448 142.815C197.72 148.833 210.899 154.287 223.55 153.942C225.255 153.892 226.952 153.73 228.637 153.462C220.235 153.56 211.191 152.605 204.41 147.439C207.47 149.145 210.657 150.724 214.143 150.628C214.68 150.611 215.236 150.543 215.79 150.447C210.523 149.28 207.049 144.459 203.071 140.972C206.049 142.123 208.75 143.992 211.335 145.932C211.333 145.904 211.339 145.882 211.331 145.861C211.33 145.847 211.328 145.819 211.327 145.805C211.322 145.706 211.317 145.621 211.304 145.53C208.782 138.692 201.061 135.996 194.277 133.946C194.616 133.926 194.955 133.907 195.301 133.894C198.003 133.822 200.707 134.168 203.304 134.86C200.312 131.754 197.707 127.748 194.225 125.478C196.005 125.764 197.764 126.165 199.507 126.673C193.405 121.602 185.026 116.365 172.594 111.576Z" fill="#9EB4CC"/>
<path d="M203.765 123.77C204.123 125.052 204.426 126.607 204.529 127.529C201.21 123.302 194.773 117.96 190.689 117.765C193.831 119.303 198.111 124.105 200.61 127.615C201.005 127.953 201.393 128.299 201.774 128.638C214.887 138.317 218.921 150.088 230.123 150.635C227.244 148.514 224.434 145.745 222.73 143.478C222.723 143.592 222.714 143.692 222.714 143.798C222.742 144.653 223.1 145.454 223.462 146.311C219.855 143.234 215.337 136.293 213.65 133.346C213.813 134.335 214.557 136.041 215.085 137.328C207.171 130.818 206.123 126.685 203.765 123.77Z" fill="#7A98B4"/>
<path d="M172.239 109.989C171.348 110.012 170.452 110.071 169.55 110.152C169.599 110.262 169.648 110.373 169.683 110.484C184.543 115.854 193.972 121.866 200.609 127.6C198.111 124.09 193.83 119.289 190.688 117.75C194.765 117.953 201.216 123.294 204.528 127.514C204.432 126.585 204.122 125.038 203.765 123.755C206.13 126.678 207.163 130.811 215.092 137.32C214.564 136.033 213.82 134.327 213.656 133.338C215.35 136.278 219.861 143.227 223.468 146.304C223.107 145.446 222.749 144.646 222.72 143.79C222.721 143.684 222.722 143.578 222.737 143.47C224.441 145.737 227.243 148.5 230.129 150.627C230.555 150.645 230.988 150.655 231.434 150.651C231.887 150.638 232.345 150.605 232.811 150.578C225.012 142.885 218.905 129.081 208.935 122.895C208.229 122.455 207.505 122.065 206.755 121.705C203.13 116.858 198.415 113.115 192.547 112.082C193.733 113.231 194.666 115.026 195.026 116.712C188.51 112.076 180.711 109.752 172.239 109.989Z" fill="#869FBA"/>
<path d="M232.191 164.915L232.19 164.886L232.191 164.915L232.12 164.168L232.148 164.166L232.176 164.165L232.204 164.163L232.191 164.915ZM232.148 164.542L232.091 164.17L232.105 164.169L232.148 164.542Z" fill="black"/>
<path d="M232.439 164.546C232.347 164.544 232.269 164.542 232.184 164.547C233.168 164.539 236.737 165.628 238.001 166.9C236.879 166.718 235.748 166.635 235.076 166.652C234.319 166.675 233.573 166.747 232.816 166.769C231.466 166.812 230.16 167.016 228.847 167.212C230.692 167.877 233.03 168.875 234.629 169.816C230.427 170.145 226.342 171.516 223.569 172.675C227.113 172.108 232.042 171.73 234.347 171.667C235.549 171.64 236.882 171.661 238.268 171.744C238.934 171.132 239.593 170.527 240.253 169.936C244.691 165.988 249.049 162.718 253.479 160.222C252.382 159.981 251.029 159.982 249.983 160.014C244.183 160.167 237.551 164.398 232.439 164.546Z" fill="#AFC3D5"/>
<path d="M208.47 204.674C223.377 190.726 243.869 164.76 265.637 155.394C246.576 159.78 231.099 177.826 208.47 204.674Z" fill="#C3D3E1"/>
<path d="M231.668 173.834C228.417 174.072 224.429 175.302 221.415 176.568C223.626 176.716 226.692 177.438 227.442 178.641C227.145 178.644 226.848 178.647 226.558 178.657C223.673 178.739 219.927 179.367 216.529 180.507C216.649 180.493 216.769 180.493 216.882 180.486C217.661 180.469 222.233 180.657 224.222 181.25C221.941 182.955 218.362 186.69 215.214 192.121C218.579 187.634 223.776 184.173 228.432 181.664C231.245 178.625 233.978 175.81 236.662 173.232C234.712 173.317 233.053 173.541 231.668 173.834Z" fill="#AFC3D5"/>
<path d="M214.995 168.845C217.565 168.08 220.281 167.54 222.99 167.475C223.323 167.462 223.649 167.472 223.982 167.474C214.366 172.034 207.624 181.938 201.82 191.15C204.719 189.487 207.807 188.018 211.008 187.025C210.408 187.669 209.843 188.318 209.301 188.987C211.715 187.99 214.011 187.155 215.357 186.787C208.431 192.055 207.966 193.555 206.091 196.639C207.195 196.497 208.29 196.214 209.386 196.186C209.606 196.18 210.635 196.226 211.605 196.34C205.644 198.946 204.545 202.948 202.596 204.64C204.648 204.486 206.537 203.838 208.25 202.846C206.531 204.716 205.052 206.934 204.071 208.578C205.478 207.434 206.946 206.13 208.478 204.695C215.754 196.057 222.289 188.339 228.448 181.692C223.798 184.193 218.595 187.661 215.229 192.149C218.378 186.718 221.957 182.983 224.238 181.278C222.25 180.699 217.676 180.497 216.898 180.514C216.778 180.514 216.658 180.528 216.545 180.534C219.943 179.395 223.688 178.767 226.574 178.684C226.871 178.681 227.161 178.671 227.458 178.668C226.716 177.472 223.642 176.744 221.43 176.596C224.445 175.33 228.432 174.1 231.684 173.862C233.076 173.561 234.734 173.337 236.684 173.253C237.215 172.747 237.738 172.249 238.262 171.766C236.891 171.682 235.55 171.654 234.341 171.689C232.036 171.752 227.099 172.123 223.563 172.697C226.336 171.537 230.421 170.167 234.623 169.838C233.025 168.896 230.693 167.892 228.841 167.234C230.154 167.037 231.452 166.827 232.81 166.791C233.567 166.768 234.313 166.697 235.07 166.674C235.748 166.649 236.879 166.732 237.995 166.922C236.732 165.65 233.17 164.567 232.178 164.568C232.164 164.569 232.157 164.563 232.143 164.563C232.143 164.563 232.143 164.563 232.157 164.563C232.164 164.569 232.171 164.562 232.185 164.561C232.277 164.563 232.355 164.565 232.44 164.56C237.56 164.419 244.184 160.181 249.969 160.029C251.009 160.004 252.369 160.01 253.466 160.237C257.423 158.003 261.444 156.374 265.638 155.408C265.658 155.4 265.672 155.399 265.686 155.384C261.73 155.196 257.793 155.092 253.896 155.197C239.71 155.582 226.179 158.599 214.995 168.845Z" fill="#9EB4CC"/>
<path d="M215.35 186.78C213.997 187.142 211.701 187.976 209.294 188.98C202.781 196.838 199.759 205.796 197.321 211.257C197.69 211.264 198.065 211.264 198.44 211.249C199.204 211.233 199.95 211.161 200.703 211.068C201.78 210.354 202.906 209.495 204.076 208.542C205.065 206.905 206.53 204.688 208.255 202.81C206.542 203.802 204.661 204.456 202.601 204.604C204.543 202.919 205.642 198.917 211.61 196.304C210.634 196.198 209.611 196.144 209.391 196.15C208.289 196.185 207.2 196.461 206.096 196.603C207.965 193.541 208.424 192.048 215.35 186.78Z" fill="#B9CCDC"/>
<path d="M226.459 186.347C231.127 184.157 234.251 182.453 236.393 181.16C233.527 185.597 230.089 188.963 226.93 191.037C229.987 190.265 237.465 186.813 242.852 180.43C241.83 183.323 240.531 185.821 239.482 187.284C242.986 185.664 249.989 180.009 250.755 171.118C252.031 172.977 252.807 175.355 252.867 177.363C252.873 177.596 252.86 177.972 252.821 178.407C254.604 175.937 257.103 171.266 256.978 166.684C256.901 164.004 255.681 161.914 255.209 161.106C245.017 167.817 235.275 177.286 226.459 186.347Z" fill="#869FBA"/>
<path d="M265.637 155.394C262.126 156.901 258.648 158.852 255.217 161.112C255.689 161.921 256.915 164.003 256.986 166.69C257.11 171.273 254.619 175.951 252.829 178.413C252.867 177.979 252.881 177.603 252.874 177.369C252.814 175.361 252.039 172.984 250.762 171.124C249.996 180.015 242.994 185.671 239.49 187.291C240.538 185.827 241.838 183.329 242.86 180.437C237.48 186.826 230.002 190.278 226.937 191.044C230.089 188.977 233.534 185.604 236.4 181.166C234.251 182.453 231.134 184.163 226.466 186.354C219.89 193.125 213.818 199.675 208.47 204.674C205.668 207.295 203.069 209.492 200.696 211.075C208.103 210.185 214.588 206.104 221.036 202.124C221.234 202.729 221.369 203.344 221.39 203.952C221.409 204.532 221.308 205.097 221.061 205.615C231.736 200.993 242.624 194.673 248.991 185.145C249.238 185.981 249.367 186.859 249.39 187.75C249.43 189.419 249.119 191.137 248.544 192.7C260.139 184.278 265.032 165.968 266.68 155.425C266.36 155.408 266.048 155.398 265.736 155.388C265.722 155.389 265.707 155.389 265.7 155.383C265.678 155.377 265.658 155.385 265.637 155.394Z" fill="#8FA6C1"/>
</svg>
