<svg width="337" height="331" viewBox="0 0 337 331" fill="none" xmlns="http://www.w3.org/2000/svg">
<g clip-path="url(#clip0_25_928)">
<path d="M298.07 158.772C297.61 159.03 296.932 159.401 296.023 159.884C294.23 160.865 291.514 162.185 287.966 163.782C280.857 166.897 270.256 170.932 256.554 173.533C249.712 174.82 242.1 175.7 233.9 175.81C225.708 175.913 216.921 175.237 207.866 173.425C198.816 171.634 189.554 168.805 180.076 165.648C170.59 162.498 160.869 159.011 150.697 156.174C140.533 153.33 130.449 151.092 120.597 149.709C115.672 149.011 110.812 148.504 106.038 148.198C101.266 147.878 96.5799 147.823 92.014 147.915C82.8744 148.106 74.2229 149.15 66.1856 150.442C60.4817 151.369 55.0927 152.415 50.0161 153.464C47.5232 153.996 44.8057 154.57 41.9199 155.19C27.85 158.257 16.7249 160.682 9.4833 162.255C8.93148 162.575 8.32828 162.911 7.68916 163.25C6.84784 163.69 6.01862 164.081 5.24027 164.392C4.4493 164.687 3.71552 164.91 3.06656 165C1.7798 165.209 0.967672 165.019 0.966096 164.827C0.964127 164.777 1.00435 164.731 1.06641 164.681C0.980546 164.686 0.894708 164.691 0.802539 164.689L0.290306 164.693L0.731534 164.412C0.928878 164.29 1.15582 164.157 1.42009 164.006C0.511194 164.204 0.0310503 164.311 0.0310503 164.311C0.0310503 164.311 0.540794 164.193 1.51029 163.959C2.25655 163.545 3.25354 163.043 4.50664 162.539C5.63367 162.087 6.9591 161.64 8.45333 161.211C8.78795 161.067 9.12254 160.924 9.44795 160.801C10.2375 160.52 10.9761 160.318 11.6125 160.213C11.9243 160.153 12.2178 160.133 12.469 160.109C12.5626 160.098 12.6548 160.1 12.7407 160.095C17.6319 158.913 23.5072 157.562 29.8088 156.213C39.5997 154.113 48.505 152.398 54.9727 151.3C57.15 150.934 59.0435 150.631 60.6097 150.402C62.3795 150.057 64.176 149.73 66.0069 149.414C74.0606 148.031 82.7568 146.899 91.9754 146.632C96.5738 146.5 101.305 146.532 106.116 146.82C110.927 147.109 115.825 147.584 120.794 148.273C130.728 149.628 140.877 151.851 151.102 154.722C161.337 157.573 171.091 161.085 180.547 164.247C190.001 167.422 199.186 170.25 208.141 172.067C217.088 173.889 225.771 174.611 233.887 174.557C242.009 174.511 249.557 173.695 256.364 172.475C269.987 170.03 280.584 166.165 287.738 163.233C291.306 161.723 294.054 160.506 295.888 159.607C296.807 159.168 297.523 158.844 297.993 158.629C298.463 158.414 298.721 158.32 298.74 158.343C298.751 158.373 298.531 158.514 298.07 158.772ZM11.7685 161.53C12.3219 161.402 12.8971 161.269 13.4801 161.13C12.7472 161.275 12.0439 161.409 11.3547 161.544C11.0211 161.61 10.7014 161.676 10.3818 161.743C10.2683 161.81 10.1549 161.876 10.0414 161.943C10.5885 161.807 11.1637 161.674 11.7685 161.53ZM1.50766 164.399C1.57169 164.398 1.63571 164.398 1.69974 164.397C1.99557 164.286 2.36461 164.153 2.80204 163.978C3.16477 163.837 3.56631 163.665 3.99256 163.46C3.92709 163.475 3.86162 163.489 3.79615 163.504C2.86792 163.821 2.10365 164.133 1.50766 164.399Z" fill="#889C9D"/>
<path d="M299.414 171.975C282.732 179.295 267.313 166.997 252.986 173.045C253.427 172.351 253.89 171.652 254.373 170.962C258.948 169.883 263.597 169.259 268.42 169.641C278.613 170.476 289.467 174.485 299.414 171.975Z" fill="#C3D3E1"/>
<path d="M279.149 177.775C280.383 178.215 281.579 178.75 282.723 179.379C285.157 180.738 287.682 183.003 289.118 184.387C283.811 182 277.988 180.769 272.291 179.693C274.311 181.763 276.061 184.168 278.101 186.169C274.44 183.617 270.537 180.579 266.395 178.276C262.018 175.843 257.356 174.234 252.423 174.857C252.281 174.792 252.136 174.742 251.994 174.677C252.313 174.134 252.653 173.586 252.994 173.039C263.515 168.604 274.62 174.047 286.388 174.361C290.005 175.685 293.704 176.762 297.546 177.221C291.437 178.143 285.291 177.767 279.149 177.775Z" fill="#9EB4CC"/>
<path d="M299.329 167.687C305.309 168.017 311.323 167.662 317.208 166.497C308.739 171.015 299.262 172.137 289.87 172.714C282.748 172.294 275.426 170.22 268.426 169.649C263.605 169.253 258.954 169.891 254.379 170.97C254.463 170.851 254.546 170.731 254.629 170.612C256.423 170.171 258.194 169.543 259.944 168.635C288.519 153.845 284.006 159.153 295.288 157.348C292.634 159.791 288.95 162.504 286.819 164.02C293.438 162.141 300.473 161.677 307.144 163.508C304.644 165.077 301.968 166.352 299.329 167.687Z" fill="#869FBA"/>
<path d="M315.833 156.155C313.412 156.681 311.163 158.021 309.582 159.913C318.303 159.509 327.084 161.222 335.242 164.356C327.813 167.886 320.503 172.132 312.31 173.486C314.882 173.494 317.471 173.206 320.03 172.723C316.602 175.228 312.7 177.293 308.576 178.483C311.637 178.442 314.699 178.039 317.728 177.405C316.387 179.179 314.723 180.778 312.809 181.626C313.704 181.491 314.602 181.47 315.504 181.548C307.436 186.526 298.757 191.576 290.24 189.713C290.001 191.7 291.425 193.261 293.066 194.453C285.554 193.332 277.749 191.186 271.038 187.454C267.42 185.447 264.12 182.975 261.353 179.954C259.562 178.782 257.773 177.582 255.89 176.535C254.774 175.909 253.624 175.349 252.409 174.855C257.344 174.218 261.997 175.834 266.381 178.275C270.529 180.585 274.426 183.616 278.087 186.167C276.047 184.166 274.296 181.761 272.277 179.691C277.974 180.767 283.805 181.992 289.103 184.385C287.66 183.007 285.142 180.737 282.709 179.378C281.559 178.741 280.363 178.205 279.135 177.773C285.277 177.765 291.423 178.141 297.531 177.219C293.697 176.768 289.999 175.677 286.374 174.359C290.628 174.47 294.971 173.914 299.408 171.967C296.298 172.757 293.1 172.897 289.856 172.713C299.248 172.136 308.725 171.013 317.194 166.496C311.316 167.668 305.302 168.01 299.323 167.679C301.954 166.351 304.638 165.07 307.138 163.5C300.467 161.67 293.431 162.133 286.812 164.012C288.944 162.497 292.628 159.783 295.282 157.341C283.992 159.151 288.512 153.837 259.937 168.627C258.188 169.535 256.424 170.171 254.623 170.604C262.583 159.346 275.862 148.698 289.815 152.364C288.322 153.128 286.498 154.213 285.662 155.705C285.626 155.772 285.591 155.84 285.563 155.901C293.724 150.165 305.972 152.924 315.833 156.155Z" fill="#8FA6C1"/>
<path d="M324.098 171.798C322.708 172.465 321.177 173.182 319.463 173.944C319.463 174.292 319.879 174.74 321.607 175.707C321.916 175.881 322.24 176.042 322.574 176.183C322.955 176.35 323.345 176.497 323.737 176.63C321.087 178.063 318.335 179.799 315.504 181.548C314.602 181.47 313.697 181.497 312.809 181.626C314.731 180.772 316.395 179.173 317.728 177.405C314.699 178.039 311.637 178.442 308.576 178.483C312.706 177.301 316.602 175.228 320.03 172.723C317.471 173.206 314.876 173.487 312.31 173.486C320.503 172.132 327.813 167.886 335.242 164.356C335.467 164.444 335.693 164.531 335.918 164.618C334.325 166.082 331.226 168.358 324.098 171.798Z" fill="#A5B8CD"/>
<path d="M153.005 156.062C152.943 155.971 152.881 155.879 152.826 155.795C152.897 155.866 152.954 155.936 153.025 156.007C153.015 156.028 153.014 156.042 153.005 156.062Z" fill="#F6F8FC"/>
<path d="M153.005 156.062C157.24 162.504 163.833 167.93 171.316 172.169C174.301 175.774 176.5 180.379 176.687 185.125C167.738 171.922 157.147 167.968 152.566 159.152C152.569 158.712 152.586 158.273 152.618 157.821C152.658 157.221 152.803 156.639 153.005 156.062Z" fill="#8FA6C1"/>
<path d="M153.025 156.007C153.626 156.652 154.244 157.284 154.877 157.904C154.244 157.284 153.626 156.652 153.025 156.007Z" fill="#F6F8FC"/>
<path d="M154.877 157.904C155.148 158.173 155.425 158.451 155.703 158.714C155.969 158.962 156.235 159.209 156.501 159.457C160.315 163.019 164.534 166.161 169.025 168.94C169.052 168.957 169.072 168.967 169.099 168.984C170.242 169.691 171.401 170.372 172.577 171.04C172.624 171.066 172.664 171.085 172.704 171.117C173.275 171.439 173.854 171.754 174.426 172.062C174.568 172.14 174.716 172.213 174.858 172.291C175.815 172.802 176.787 173.3 177.769 173.777C178.026 173.903 178.289 174.037 178.546 174.163C178.932 174.352 179.332 174.542 179.718 174.731C179.826 174.785 179.948 174.84 180.064 174.888C180.417 175.052 180.763 175.208 181.124 175.366C181.878 175.707 182.64 176.041 183.395 176.368C183.776 176.535 184.165 176.695 184.553 176.856C185.003 177.045 185.467 177.235 185.917 177.423C186.606 177.7 187.296 177.977 187.986 178.24C188.554 178.462 189.122 178.67 189.691 178.877C190.047 179.013 190.396 179.142 190.759 179.271C191.253 179.45 191.76 179.63 192.261 179.803C192.749 179.974 193.243 180.138 193.738 180.303C194.13 180.435 194.521 180.568 194.907 180.693C195.815 180.985 196.723 181.278 197.633 181.556C192.456 180.676 186.955 179.143 181.558 177.025C178.38 175.781 175.252 174.329 172.251 172.684C171.942 172.51 171.632 172.35 171.33 172.17C163.839 167.938 157.254 162.506 153.019 156.064C153.028 156.043 153.029 156.029 153.039 156.009C153.626 156.652 154.244 157.284 154.877 157.904Z" fill="#C3D3E1"/>
<path d="M178.183 163.797C178.452 163.811 179.578 163.848 180.839 163.829C177.291 164.665 172.921 166.171 172.495 168.373C180.115 168.723 188.099 166.494 191.245 163.278C191.249 163.378 191.254 163.464 191.244 163.562C190.906 168.233 187.828 171.343 185.248 172.385C187.563 172.744 189.879 173.103 192.208 173.272C194.141 173.414 198.554 173.498 201.676 172.994C199.216 174.518 194.707 177.104 190.836 177.147C192.938 178.067 196.46 179.339 202.896 179.801C207.609 180.144 209.359 179.919 211.506 179.5C208.844 180.299 205.459 181.003 200.533 180.653C196.92 180.395 191.825 179.281 187.966 178.231C187.275 177.968 186.586 177.691 185.896 177.414C185.439 177.232 184.989 177.043 184.533 176.847C184.144 176.686 183.763 176.519 183.375 176.358C182.619 176.032 181.857 175.698 181.103 175.357C180.751 175.193 180.397 175.043 180.044 174.879C179.922 174.823 179.813 174.77 179.691 174.714C179.298 174.532 178.912 174.343 178.518 174.16C178.261 174.034 177.998 173.901 177.74 173.775C176.767 173.291 175.801 172.8 174.83 172.288C174.688 172.21 174.539 172.138 174.398 172.059C173.819 171.744 173.247 171.436 172.676 171.114C172.629 171.088 172.588 171.07 172.548 171.037C171.38 170.377 170.213 169.688 169.071 168.981C169.044 168.964 169.024 168.955 168.997 168.938C165.429 166.723 162.032 164.291 158.869 161.591C160.26 160.924 165.84 161.27 166.496 161.316C173.108 161.79 175.445 163.601 178.183 163.797Z" fill="#AFC3D5"/>
<path d="M201.757 158.658C204.73 159.951 207.608 161.349 210.323 162.801C209.078 162.808 207.774 163.122 206.805 163.833C212.961 165.901 218.649 169.628 223.459 174.146C218.953 172.268 214.735 170.157 211.25 169.756C210.21 169.713 209.52 169.784 208.997 169.887C213.03 171.247 217.112 176.55 219.093 179.412C216.317 181.451 213.537 183.468 210.002 183.972C212.263 183.821 214.61 183.742 216.925 183.909C219.733 184.113 222.483 184.673 224.954 185.872C223.13 187.163 221.101 188.156 218.928 188.764C228.724 189.792 236.511 197.225 242.248 197.637C242.41 197.647 242.573 197.656 242.737 197.652C242.813 197.667 242.888 197.696 242.971 197.719C236.891 199.546 230.458 200.164 224.093 199.709C219.591 199.388 215.123 198.524 210.835 197.166C210.263 196.986 209.694 196.778 209.124 196.585C209.926 198.188 210.889 199.673 212.107 200.964C212.574 201.745 213.14 202.471 213.779 203.098C213.276 203.082 212.773 203.066 212.265 203.028C201.596 202.258 190.973 197.661 183.246 190.192C182.235 190.834 181.282 192.151 181.163 193.859C181.106 194.692 181.224 195.55 181.487 196.38C169.913 187.89 152.381 175.262 152.565 159.166C157.146 167.982 167.736 171.936 176.686 185.139C176.498 180.393 174.299 175.788 171.315 172.183C171.624 172.357 171.927 172.523 172.236 172.697C176.019 176 179.6 183.27 185.643 185.612C184.449 183.89 183.425 182.093 182.279 180.383C186.131 183.153 190.445 185.302 195.038 186.258C189.999 184.041 185.156 181.084 181.536 177.029C186.933 179.148 192.434 180.68 197.611 181.561C196.701 181.283 195.793 180.99 194.885 180.698C194.5 180.573 194.108 180.44 193.716 180.308C193.222 180.143 192.734 179.972 192.24 179.807C191.738 179.635 191.245 179.456 190.737 179.276C190.38 179.154 190.025 179.018 189.669 178.882C189.1 178.674 188.532 178.467 187.965 178.245C191.829 179.303 196.919 180.409 200.532 180.667C205.458 181.017 208.842 180.313 211.505 179.513C209.358 179.932 207.601 180.15 202.894 179.815C196.459 179.353 192.936 178.081 190.834 177.161C194.705 177.118 199.215 174.532 201.675 173.008C198.552 173.512 194.14 173.427 192.206 173.286C189.878 173.117 187.556 172.751 185.246 172.399C187.827 171.357 190.905 168.247 191.243 163.576C191.253 163.478 191.248 163.392 191.244 163.292C188.09 166.515 180.114 168.737 172.494 168.387C172.918 166.199 177.296 164.687 180.837 163.843C179.583 163.87 178.449 163.839 178.182 163.811C175.444 163.615 173.099 161.81 166.523 161.333C165.867 161.287 160.287 160.941 158.896 161.608C158.086 160.913 157.285 160.198 156.5 159.471C156.234 159.223 155.968 158.975 155.702 158.728C155.423 158.465 155.146 158.187 154.875 157.918C154.25 157.292 153.625 156.666 153.023 156.021C153.121 155.761 153.219 155.501 153.337 155.25C155.723 154.095 158.215 153.228 160.765 152.623C165.393 151.514 170.228 151.229 175.117 151.583C184.172 152.222 193.395 155.019 201.757 158.658Z" fill="#9EB4CC"/>
<path d="M200.06 126.418C211.818 118.67 225.078 114.212 238.802 115.203C240.418 115.32 242.033 115.514 243.655 115.78C241.531 116.529 239.549 117.548 237.787 118.852C238.054 118.816 238.321 118.779 238.588 118.742C235.581 119.912 233.177 121.108 232.515 122.149C232.491 122.182 232.48 122.216 232.461 122.257C232.452 122.277 232.443 122.298 232.434 122.318C232.38 122.426 232.354 122.537 232.343 122.65C232.343 122.65 232.343 122.65 232.341 122.664C236.845 119.722 245.057 119.976 250.166 120.345C250.702 120.386 251.23 120.433 251.758 120.48C248.97 120.919 245.702 121.656 244.704 122.79C248.406 121.764 252.165 121.439 253.971 121.568C255.699 121.696 257.352 122.143 259.044 122.417C255.2 122.825 250.519 125.073 248.598 127.086C257.967 121.282 263.224 125.32 269.372 122.497C263.719 127.418 257.454 132.489 250.54 134.401C250.68 134.636 250.833 134.872 251.002 135.096C247.016 137.152 242.534 138.853 236.691 138.707C237.817 139.029 239.133 139.299 240.572 139.404C241.744 139.482 243.282 139.455 244.827 139.358C241.864 140.738 239.098 142.267 232.966 141.828C231.675 141.731 230.746 141.636 230.068 141.53C231.072 142.273 232.137 142.838 233.241 143.228C232.523 143.233 231.842 143.22 231.284 143.184C228.779 143.004 225.848 142.191 223.512 140.65C224.597 141.778 226.317 143.163 227.93 144.275C227.896 144.264 227.861 144.253 227.819 144.249C227.57 144.941 227.415 145.622 227.364 146.256C226.999 151.323 232.539 154.345 236.931 156.495C228.501 157.526 219.649 158.102 210.888 157.649C207.94 158.398 204.882 158.681 201.749 158.664C193.495 155.079 184.405 152.303 175.47 151.605C178.058 151.125 182.069 151.174 183.825 151.305C188.066 151.606 194.661 152.519 199.24 154.312C197.375 153.224 194.447 151.907 191.68 151.025C197.473 151.379 204.518 150.959 207.699 150.717C206.645 150.659 205.467 150.573 204.104 150.483C202.75 150.386 198.419 149.849 193.185 147.868C199.338 147.477 207.45 148.367 215.332 146.647C211.312 146.888 208.015 146.876 205.659 146.705C202.11 146.446 200.428 145.662 199.168 145.049C205.349 141.143 211.539 140.116 220.37 140.37C218.956 140.231 217.046 140.071 214.316 139.868C213.152 139.784 209.198 139.52 206.349 139.504C210.943 137.687 216.843 136.24 222.207 135.291C222.165 135.287 222.109 135.281 222.067 135.277C218.877 135.048 216.268 134.915 214.078 134.854C215.823 134.542 217.584 134.283 219.365 134.11C218.957 134.069 218.557 134.02 218.147 133.992C217.971 133.981 217.772 133.975 217.574 133.969C221.856 133.244 226.202 132.944 230.52 133.26C231.395 133.321 232.273 133.419 233.151 133.53C229.687 132.79 226.14 132.234 222.591 131.976C219.126 131.726 215.661 131.761 212.243 132.17C216.377 129.773 220.264 126.817 224.752 125.267C215.278 126.155 205.483 128.774 197.769 134.392C200.393 131.136 203.703 128.598 206.937 126.044C200.011 127.593 193.843 131.721 188.476 136.486C188.293 135.707 188.246 134.92 188.304 134.151C188.481 131.738 189.641 129.377 190.831 127.132C188.205 129.862 186.164 131.251 184.322 134.581C182.009 138.757 180.624 143.52 177.465 147.069C174.784 148.464 172.146 149.927 169.606 151.464C166.59 151.559 163.63 151.93 160.751 152.622C165.498 131.551 185.724 117.971 206.705 118.343C203.888 120.506 201.359 123.26 200.06 126.418Z" fill="#869FBA"/>
<path d="M181.551 177.017C185.18 181.065 190.022 184.022 195.054 186.246C190.46 185.29 186.145 183.155 182.294 180.37C183.434 182.073 184.456 183.884 185.659 185.6C179.61 183.25 176.042 175.981 172.251 172.684C175.246 174.321 178.374 175.773 181.551 177.017Z" fill="#8FA6C1"/>
<path d="M223.445 174.145C224.592 175.222 225.691 176.352 226.732 177.504C225.226 176.937 223.655 176.59 222.057 176.369C228.061 181.514 232.72 195.037 242.723 197.651C242.56 197.641 242.396 197.646 242.234 197.636C236.497 197.224 228.71 189.791 218.914 188.763C221.087 188.154 223.108 187.168 224.94 185.871C222.463 184.664 219.712 184.104 216.911 183.908C214.596 183.741 212.249 183.82 209.988 183.971C213.521 183.481 216.303 181.45 219.079 179.411C217.106 176.542 213.022 171.253 208.983 169.886C209.506 169.783 210.195 169.712 211.236 169.755C214.72 170.156 218.939 172.267 223.445 174.145Z" fill="#B9CCDC"/>
<path d="M219.387 134.105C202.688 135.779 187.338 143.691 172.458 151.452C171.515 151.433 170.57 151.428 169.628 151.459C187.136 140.876 209.327 133.356 218.169 133.987C218.572 134.008 218.98 134.049 219.387 134.105Z" fill="#C3D3E1"/>
<path d="M206.973 126.041C203.739 128.594 200.429 131.133 197.805 134.389C205.513 128.762 215.314 126.152 224.788 125.264C220.3 126.814 216.413 129.769 212.279 132.166C215.697 131.757 219.169 131.73 222.627 131.972C226.176 132.23 229.723 132.787 233.186 133.527C232.309 133.415 231.431 133.318 230.556 133.256C226.23 132.947 221.892 133.24 217.61 133.965C209.788 133.716 192.931 139.063 177.501 147.065C180.659 143.516 182.053 138.747 184.358 134.577C186.2 131.248 188.241 129.858 190.867 127.129C189.677 129.373 188.517 131.735 188.34 134.148C188.289 134.924 188.329 135.703 188.512 136.483C193.871 131.724 200.039 127.595 206.973 126.041Z" fill="#9EB4CC"/>
<path d="M222.229 135.286C216.865 136.235 210.957 137.689 206.371 139.499C209.214 139.507 213.173 139.779 214.338 139.863C217.061 140.058 218.971 140.219 220.392 140.365C211.561 140.111 205.379 141.131 199.19 145.045C200.449 145.657 202.138 146.449 205.681 146.7C208.037 146.871 211.334 146.883 215.354 146.642C207.471 148.363 199.346 147.47 193.207 147.863C198.441 149.844 202.771 150.381 204.126 150.478C205.481 150.575 206.659 150.66 207.72 150.713C204.533 150.946 197.488 151.367 191.702 151.02C194.469 151.902 197.397 153.22 199.261 154.307C194.69 152.522 188.094 151.609 183.847 151.3C182.09 151.17 178.086 151.128 175.492 151.6C175.372 151.595 175.253 151.576 175.133 151.57C174.244 151.507 173.352 151.472 172.466 151.445C184.543 145.152 196.915 138.761 210.077 135.672C211.41 135.361 212.76 135.088 214.107 134.842C216.284 134.903 218.901 135.03 222.096 135.266C222.131 135.276 222.181 135.274 222.229 135.286Z" fill="#7A98B4"/>
<path d="M254.932 138.151C249.151 143.009 240.619 145.657 232.83 145.084C231.144 144.96 229.502 144.685 227.925 144.253C226.312 143.141 224.586 141.748 223.507 140.628C225.836 142.175 228.76 142.981 231.279 143.162C231.837 143.198 232.524 143.218 233.236 143.206C232.14 142.809 231.075 142.245 230.063 141.508C230.741 141.613 231.676 141.717 232.961 141.806C239.093 142.245 241.859 140.716 244.823 139.336C243.277 139.433 241.731 139.466 240.567 139.382C239.128 139.277 237.804 139.013 236.687 138.685C242.529 138.831 247.004 137.137 250.997 135.074C251.956 136.395 253.342 137.433 254.932 138.151Z" fill="#9EB4CC"/>
<path d="M232.785 122.432L232.745 122.4L232.785 122.432L232.829 122.344L232.194 121.959C232.169 121.992 232.15 122.033 232.14 122.067C232.132 122.074 232.131 122.088 232.123 122.094L232.785 122.432Z" fill="black"/>
<path d="M232.766 122.473L232.124 122.08L232.087 122.161L232.766 122.473Z" fill="black"/>
<path d="M267.07 120.683C268.453 120.782 269.841 120.84 271.218 120.854C270.601 121.394 269.984 121.935 269.351 122.488C263.212 125.305 257.954 121.267 248.578 127.077C250.498 125.064 255.179 122.816 259.024 122.408C257.332 122.134 255.679 121.687 253.951 121.559C252.152 121.424 248.394 121.748 244.684 122.781C245.682 121.647 248.941 120.916 251.738 120.471C251.21 120.424 250.674 120.383 250.145 120.336C245.037 119.967 236.824 119.713 232.321 122.655C232.321 122.655 232.321 122.655 232.322 122.641C232.334 122.528 232.367 122.411 232.413 122.309C232.423 122.288 232.432 122.268 232.441 122.248C232.459 122.207 232.476 122.18 232.495 122.14C233.164 121.092 235.561 119.903 238.567 118.733C241.795 118.312 245.056 118.327 248.338 118.558C254.545 119.026 260.826 120.233 267.07 120.683Z" fill="#AFC3D5"/>
<path d="M136.753 125.866C122.117 137.966 120.67 149.07 103.496 147.83C103.375 147.825 103.256 147.806 103.144 147.794C103.7 147.368 104.252 146.906 104.793 146.414C105.249 146.468 105.699 146.514 106.165 146.548C118.345 147.416 122.704 135.297 136.753 125.866Z" fill="#C3D3E1"/>
<path d="M134.948 132.014C137.574 131.438 140.285 131.205 142.987 131.404C143.326 131.425 143.663 131.46 144.007 131.502C137.139 133.248 129.305 135.599 126.482 142.317C126.466 142.408 126.457 142.493 126.447 142.591C126.445 142.605 126.442 142.633 126.441 142.647C126.44 142.661 126.437 142.69 126.434 142.718C129.102 140.895 131.883 139.148 134.909 138.13C130.782 141.423 127.096 146.098 121.782 147.03C122.338 147.159 122.884 147.243 123.42 147.284C126.898 147.535 130.146 146.092 133.285 144.531C126.289 149.385 117.21 149.951 108.814 149.472C106.893 149.075 104.996 148.518 103.138 147.786C103.258 147.792 103.377 147.811 103.489 147.822C120.664 149.062 122.117 137.966 136.747 125.858C137.493 125.238 138.281 124.622 139.099 123.996C140.856 123.572 142.638 123.244 144.43 123.037C140.857 125.157 138.076 129.044 134.948 132.014Z" fill="#8FA6C1"/>
<path d="M156.282 128.748C154.751 129.465 153.237 129.885 151.854 129.785C156.664 128.14 161.193 121.363 161.992 118.637C160.432 119.493 158.145 121.277 156.01 122.266C158.372 120.525 160.163 118.101 163.308 115.104C162.363 115.164 160.781 115.484 158.748 116.313C160.192 114.919 162.951 112.558 166.656 110.124C167.62 109.804 168.598 109.485 169.612 109.163C166.391 116.153 162.133 123.691 156.282 128.748Z" fill="#ACC2D5"/>
<path d="M166.664 110.118C162.959 112.552 160.2 114.913 158.755 116.307C160.781 115.484 162.371 115.157 163.315 115.098C160.157 118.093 158.379 120.519 156.018 122.259C158.16 121.264 160.44 119.487 162 118.631C161.2 121.356 156.68 128.128 151.861 129.779C153.238 129.871 154.759 129.459 156.29 128.742C154.964 129.885 153.559 130.899 152.071 131.748C152.608 131.853 153.155 131.924 153.705 131.966C155.172 132.074 156.671 131.951 158.124 131.646C153.682 135.027 148.702 138.034 143.413 139.978C144.634 140.545 145.933 140.842 147.266 140.943C148.635 141.041 150.04 140.93 151.434 140.711C139.906 146.221 126.498 151.084 113.874 150.177C112.174 150.052 110.485 149.814 108.814 149.472C117.204 149.944 126.281 149.391 133.285 144.531C130.152 146.1 126.898 147.535 123.42 147.284C122.884 147.243 122.331 147.151 121.782 147.031C127.096 146.098 130.781 141.438 134.909 138.13C131.883 139.148 129.102 140.895 126.434 142.718C126.437 142.69 126.432 142.668 126.441 142.648C126.443 142.634 126.445 142.605 126.447 142.591C126.457 142.493 126.466 142.408 126.482 142.318C129.305 135.599 137.139 133.248 144.007 131.502C143.67 131.468 143.332 131.433 142.987 131.404C140.291 131.213 137.574 131.438 134.948 132.014C138.076 129.044 140.857 125.158 144.436 123.045C142.645 123.252 140.87 123.574 139.106 124.004C145.428 119.209 154.031 114.35 166.664 110.118Z" fill="#9EB4CC"/>
<path d="M134.981 120.914C134.566 122.179 134.195 123.719 134.051 124.635C137.555 120.56 144.223 115.509 148.311 115.496C145.104 116.894 140.614 121.5 137.962 124.895C137.552 125.216 137.149 125.544 136.753 125.866C123.223 134.952 118.67 146.533 107.455 146.581C110.425 144.591 113.355 141.949 115.158 139.76C115.161 139.874 115.165 139.974 115.161 140.08C115.095 140.934 114.701 141.718 114.302 142.558C118.042 139.644 122.864 132.911 124.681 130.041C124.473 131.022 123.654 132.694 123.07 133.956C131.265 127.804 132.495 123.722 134.981 120.914Z" fill="#7A98B4"/>
<path d="M167.088 108.548C167.977 108.611 168.87 108.71 169.767 108.83C169.713 108.939 169.66 109.047 169.62 109.157C154.536 113.861 144.849 119.447 137.963 124.881C140.616 121.486 145.105 116.879 148.313 115.482C144.23 115.503 137.548 120.552 134.052 124.621C134.19 123.697 134.568 122.165 134.982 120.9C132.489 123.714 131.273 127.797 123.063 133.948C123.648 132.686 124.467 131.014 124.674 130.033C122.852 132.895 118.036 139.636 114.296 142.55C114.695 141.71 115.088 140.926 115.155 140.072C115.159 139.966 115.162 139.86 115.152 139.752C113.349 141.941 110.427 144.576 107.449 146.573C107.023 146.572 106.59 146.563 106.145 146.539C105.693 146.506 105.237 146.452 104.772 146.405C112.905 139.066 119.619 125.547 129.855 119.811C130.58 119.402 131.32 119.045 132.086 118.718C135.922 114.037 140.799 110.508 146.707 109.737C145.471 110.832 144.46 112.583 144.025 114.252C150.741 109.91 158.635 107.935 167.088 108.548Z" fill="#869FBA"/>
<path d="M104.754 160.755L104.757 160.727L104.754 160.755L104.859 160.012L104.831 160.009L104.803 160.006L104.775 160.003L104.754 160.755ZM104.814 160.384L104.887 160.015L104.873 160.013L104.814 160.384Z" fill="black"/>
<path d="M104.523 160.376C104.615 160.378 104.693 160.379 104.778 160.388C103.795 160.336 100.181 161.266 98.8617 162.481C99.9913 162.348 101.125 162.315 101.795 162.363C102.55 162.419 103.293 162.524 104.048 162.58C105.395 162.683 106.69 162.944 107.993 163.199C106.121 163.781 103.74 164.674 102.101 165.543C106.285 166.059 110.305 167.609 113.023 168.891C109.508 168.167 104.601 167.57 102.301 167.405C101.1 167.324 99.7679 167.287 98.3797 167.307C97.7419 166.666 97.1104 166.032 96.4775 165.413C92.2189 161.272 88.0111 157.811 83.6957 155.121C84.803 154.929 86.1544 154.99 87.1983 155.069C92.985 155.479 99.4223 160.001 104.523 160.376Z" fill="#AFC3D5"/>
<path d="M126.685 201.53C112.413 186.933 93.0946 160.082 71.7649 149.757C90.6118 154.986 105.271 173.703 126.685 201.53Z" fill="#C3D3E1"/>
<path d="M104.881 169.689C108.118 170.072 112.047 171.478 115.002 172.876C112.786 172.926 109.691 173.51 108.889 174.679C109.185 174.695 109.482 174.711 109.771 174.734C112.65 174.945 116.364 175.739 119.708 177.028C119.589 177.009 119.468 177.003 119.356 176.992C118.579 176.94 114.003 176.925 111.989 177.429C114.192 179.233 117.602 183.124 120.506 188.69C117.343 184.057 112.306 180.368 107.765 177.655C105.09 174.494 102.485 171.561 99.9183 168.866C101.863 169.037 103.51 169.335 104.881 169.689Z" fill="#AFC3D5"/>
<path d="M121.758 165.446C119.226 164.567 116.536 163.907 113.832 163.721C113.501 163.694 113.174 163.689 112.842 163.676C122.246 168.659 128.54 178.853 133.93 188.314C131.107 186.524 128.087 184.92 124.934 183.785C125.505 184.455 126.04 185.129 126.552 185.821C124.184 184.717 121.928 183.782 120.6 183.354C127.285 188.924 127.683 190.444 129.419 193.608C128.323 193.417 127.241 193.085 126.147 193.008C125.928 192.993 124.897 192.994 123.923 193.064C129.763 195.932 130.683 199.979 132.555 201.757C130.511 201.511 128.653 200.78 126.986 199.713C128.62 201.658 129.999 203.939 130.906 205.625C129.551 204.419 128.142 203.052 126.676 201.55C119.792 192.597 113.605 184.596 107.748 177.682C112.282 180.387 117.326 184.083 120.489 188.716C117.585 183.15 114.175 179.26 111.972 177.455C113.985 176.966 118.562 176.967 119.339 177.018C119.459 177.024 119.578 177.043 119.691 177.055C116.347 175.765 112.633 174.971 109.754 174.761C109.458 174.744 109.168 174.722 108.872 174.705C109.666 173.543 112.769 172.952 114.985 172.903C112.03 171.504 108.101 170.098 104.864 169.716C103.486 169.354 101.839 169.056 99.895 168.885C99.3878 168.356 98.8869 167.836 98.3845 167.329C99.7587 167.307 101.099 167.338 102.305 167.427C104.606 167.592 109.521 168.183 113.028 168.913C110.31 167.631 106.289 166.081 102.106 165.565C103.745 164.696 106.119 163.795 107.998 163.221C106.695 162.966 105.407 162.699 104.053 162.602C103.298 162.546 102.555 162.441 101.8 162.385C101.123 162.329 99.9899 162.362 98.8666 162.502C100.186 161.288 103.792 160.365 104.783 160.41C104.797 160.411 104.804 160.405 104.819 160.406C104.819 160.406 104.819 160.406 104.804 160.405C104.797 160.411 104.79 160.403 104.776 160.402C104.684 160.399 104.606 160.399 104.522 160.39C99.4131 160.021 92.9836 155.493 87.211 155.084C86.1734 155.013 84.8142 154.959 83.7083 155.137C79.8544 152.729 75.9101 150.923 71.7634 149.771C71.7431 149.762 71.729 149.761 71.7164 149.745C75.677 149.733 79.6148 149.804 83.5029 150.083C97.6579 151.097 111.041 154.712 121.758 165.446Z" fill="#9EB4CC"/>
<path d="M120.607 183.347C121.943 183.769 124.2 184.705 126.559 185.814C132.717 193.954 135.337 203.038 137.53 208.601C137.162 208.592 136.787 208.575 136.413 208.543C135.651 208.493 134.908 208.389 134.16 208.262C133.116 207.501 132.029 206.593 130.903 205.588C129.988 203.909 128.623 201.629 126.982 199.676C128.65 200.744 130.5 201.481 132.551 201.72C130.686 199.951 129.766 195.904 123.92 193.028C124.9 192.965 125.925 192.957 126.143 192.972C127.244 193.057 128.319 193.381 129.415 193.572C127.684 190.43 127.292 188.918 120.607 183.347Z" fill="#B9CCDC"/>
<path d="M109.528 182.421C104.962 180.026 101.917 178.184 99.835 176.797C102.501 181.358 105.786 184.873 108.85 187.086C105.83 186.178 98.5128 182.398 93.414 175.782C94.3064 178.717 95.494 181.27 96.4763 182.778C93.0476 181.004 86.3033 175.044 85.9334 166.127C84.5754 167.928 83.695 170.269 83.5459 172.272C83.5291 172.505 83.5259 172.881 83.5451 173.317C81.8734 170.771 79.5852 165.993 79.9132 161.421C80.1099 158.747 81.4207 156.714 81.9281 155.927C91.812 163.085 101.123 172.978 109.528 182.421Z" fill="#869FBA"/>
<path d="M71.7649 149.757C75.2051 151.419 78.5927 153.523 81.9203 155.934C81.413 156.72 80.0958 158.746 79.9054 161.427C79.5775 166 81.8579 170.784 83.5374 173.323C83.5182 172.888 83.5213 172.511 83.5381 172.278C83.6873 170.275 84.5676 167.935 85.9257 166.134C86.2956 175.05 93.0399 181.011 96.4685 182.785C95.4863 181.276 94.2987 178.723 93.4062 175.788C98.4973 182.41 105.814 186.191 108.842 187.092C105.785 184.887 102.493 181.364 99.8273 176.804C101.917 178.184 104.955 180.032 109.521 182.428C115.79 189.484 121.565 196.298 126.685 201.53C129.367 204.272 131.867 206.583 134.167 208.27C126.807 207.051 120.51 202.686 114.245 198.424C114.02 199.019 113.858 199.628 113.81 200.235C113.765 200.813 113.841 201.382 114.064 201.91C103.605 196.818 93.0092 190.021 87.072 180.219C86.7883 181.043 86.6205 181.914 86.5575 182.804C86.4431 184.469 86.6775 186.2 87.1825 187.787C75.9737 178.858 71.8986 160.348 70.7215 149.742C71.0416 149.74 71.354 149.743 71.6664 149.747C71.6805 149.749 71.6945 149.75 71.7023 149.744C71.7241 149.739 71.7445 149.748 71.7649 149.757Z" fill="#8FA6C1"/>
</g>
<defs>
<clipPath id="clip0_25_928">
<rect width="213.84" height="260.4" fill="white" transform="matrix(-0.63108 -0.775717 -0.775717 0.63108 336.947 165.882)"/>
</clipPath>
</defs>
</svg>
