<svg width="70" height="72" viewBox="0 0 70 72" fill="none" xmlns="http://www.w3.org/2000/svg">
<g clip-path="url(#clip0_4_914)">
<path d="M4.28903 28.7603C3.22337 27.4815 2.86372 26.2427 2.43746 24.7241C1.97123 23.0724 1.85135 21.6204 1.87799 14.6271C1.87799 14.6271 1.87799 9.6851 1.86467 9.05903C1.86467 9.05903 1.6915 4.06379 1.87799 2.7184C1.87799 2.67844 1.90463 2.59852 1.95791 2.55856C1.99787 2.54524 2.05116 2.54524 2.09112 2.53192C2.10444 2.46531 2.11776 2.39871 2.13108 2.31879C2.17104 2.2655 2.25097 2.23886 2.29093 2.23886C3.63631 2.03905 8.63156 2.22554 8.63156 2.22554C9.25763 2.25218 9.61728 2.23886 10.5897 2.23886C11.2824 2.23886 14.1996 2.25218 14.1996 2.25218C21.1929 2.22554 22.6449 2.34543 24.2966 2.81165C25.8152 3.25123 27.054 3.59757 28.3328 4.66322C31.7429 7.51384 31.583 12.2293 31.5564 12.8821C31.5031 14.1209 31.3566 17.158 28.8923 19.4092C28.5859 19.6889 25.642 22.2864 21.779 21.3673C21.6458 21.3407 21.1796 21.2208 20.5669 20.9677C20.8333 21.5938 20.9532 22.0866 20.9931 22.2198C21.9256 26.0828 19.328 29.0134 19.035 29.3331C16.7838 31.7974 13.7467 31.9306 12.5079 31.9972C11.8552 32.0105 7.13964 32.1704 4.28903 28.7603ZM19.7943 25.3502C20.4736 23.432 19.8209 21.6204 19.7943 21.5405C19.5811 20.9544 19.2748 20.4881 18.9551 20.0885C18.6354 19.6756 18.0359 19.0362 17.1035 18.5833C16.7039 18.3835 14.7324 17.4777 12.6411 18.4501C12.4546 18.5433 10.0702 19.7022 9.89702 22.0467C9.81709 23.1656 10.2167 24.6708 11.349 25.2836C11.5355 25.3901 12.2281 25.8031 13.054 25.59C13.5868 25.4434 14.1463 25.0571 14.3594 24.4977C14.5859 23.8849 14.466 23.139 14.4394 22.9924C14.3594 22.5928 14.2129 22.3131 14.3728 22.1266C14.4926 21.9801 14.7191 21.9401 14.9056 21.9934C14.9988 22.02 15.1986 22.1399 15.3851 22.7127C15.838 24.0714 15.4118 25.3235 15.3318 25.5367C14.9056 26.1894 14.2928 26.4691 14.0397 26.589C12.9741 27.0685 11.8152 26.8821 11.1492 26.589C9.16438 25.7098 8.07209 22.3131 9.25763 19.7688C10.4698 17.1713 13.7067 16.2655 16.1844 16.8783C16.3176 16.9049 16.4375 16.9582 16.5707 16.9981C16.5174 16.8516 16.4774 16.7184 16.4375 16.5586C15.8247 14.0809 16.7305 10.844 19.328 9.63182C21.859 8.44628 25.2557 9.5519 26.1482 11.5234C26.1748 11.6033 26.8942 13.0819 26.1482 14.4139C25.2957 15.9458 23.191 16.0391 22.2719 15.7593C22.0588 15.6927 21.5792 15.5595 21.5526 15.2798C21.5259 15.1066 21.6858 14.9068 21.8456 14.8269C22.0721 14.707 22.3252 14.7869 22.5383 14.8269C23.1244 14.9468 23.7105 14.8668 24.0435 14.7469C24.603 14.5338 25.0026 13.9743 25.1358 13.4415C25.349 12.6156 24.936 11.9363 24.8295 11.7365C24.2167 10.6042 22.7115 10.2046 21.5925 10.2845C19.2481 10.4577 18.0759 12.8421 17.996 13.0286C17.0236 15.1066 17.9294 17.0914 18.1292 17.491C18.6087 18.4501 19.2748 19.0628 19.6877 19.3825C19.9941 19.6223 20.4603 19.942 21.0864 20.1818C21.1663 20.2084 22.9912 20.8611 24.8961 20.1818C28.6125 18.863 30.8371 13.2018 29.3851 9.12564C29.2253 8.65941 28.4926 6.70128 26.6011 5.38253C25.4156 4.55665 24.2567 4.31688 23.7105 4.197C20.9798 3.65085 13.6534 3.62421 3.8228 4.22364C3.21005 14.0809 3.25001 21.4339 3.78284 24.178C3.88941 24.7374 4.12918 25.883 4.96838 27.0685C6.30044 28.9601 8.24526 29.6927 8.71148 29.8526C12.8142 31.2912 18.4755 29.0666 19.7943 25.3502Z" fill="#A5C2BF"/>
<path d="M2.22444 63.1809C2.30436 63.1276 2.42425 63.0877 2.55745 63.101C2.91711 63.141 3.26345 63.5805 3.25013 63.9535C3.23681 64.3265 2.87715 64.4464 2.39761 64.9526C2.29104 65.0724 1.54508 65.9116 1.57173 66.4844C1.67829 68.9088 8.44518 70.1743 7.31292 65.0325C6.95327 63.394 5.38143 61.5558 4.48895 60.277C2.75726 57.8127 0.879052 55.8279 0.332905 52.7908C-0.466334 48.395 1.43852 42.2941 5.24822 39.2037C1.45184 35.4074 1.22539 29.0667 2.13119 23.9916C2.1978 23.5919 2.49085 23.2989 2.66402 23.3655C2.77058 23.4055 2.7839 23.6852 2.79722 23.9116C2.86383 24.7508 3.18352 25.2437 3.30341 25.6167C3.68971 26.7889 2.89047 29.0268 2.98371 31.2646C3.09028 34.022 4.52891 36.7661 6.54033 38.2713C7.39285 37.845 8.25869 37.5253 9.19113 37.3655C11.1626 37.0325 13.2406 37.8051 12.8144 40.0429C12.1616 43.3864 8.68495 41.7613 6.7801 40.5092C6.59361 40.3893 6.42044 40.2428 6.24727 40.1096C3.83624 41.788 2.06459 44.5453 1.51844 47.3959C0.665921 51.7918 2.59741 54.2561 4.92853 57.453C7.44613 60.8898 11.1226 65.6852 7.19304 69.6947C2.81055 74.1704 -3.35691 66.8041 2.22444 63.1809ZM9.7506 38.6176C8.96468 38.631 8.32529 38.9107 7.88571 39.1771C8.04556 39.3236 8.31197 39.5501 8.65831 39.7765C8.75155 39.8298 10.6964 41.0287 11.4423 40.336C11.7087 40.0829 11.7887 39.6167 11.6421 39.2837C11.3358 38.591 10.1236 38.6176 9.7506 38.6176Z" fill="#A5C2BF"/>
<path d="M36.8181 10.1781C36.938 9.24565 37.2044 8.36649 37.604 7.54061C36.9646 6.84794 36.3253 6.28847 35.9656 6.03538C34.5403 5.02301 32.8486 4.46354 31.1435 4.14385C28.4527 3.62434 25.6954 3.75755 22.9913 4.02396C22.605 4.06392 22.7648 2.59865 23.1645 2.51873C28.506 1.533 34.7135 2.03919 38.35 6.22187C41.3338 1.86602 47.821 -0.398494 52.6697 0.986854C55.6802 1.8527 58.1178 4.38362 60.6754 6.06202C61.821 6.80797 63.0731 7.71378 64.4851 7.84698C69.9332 8.32653 67.5489 -0.957963 63.3662 3.87743C63.3129 3.93071 63.1664 4.11721 62.9665 4.10389C62.7401 4.10389 62.5536 3.86411 62.487 3.70426C62.2472 3.19808 62.7268 2.50541 62.9266 2.21235C63.1264 1.93262 64.0855 0.533951 65.684 0.387424C67.6155 0.214255 69.3871 1.95926 69.8533 3.82415C70.3462 5.76896 69.3471 7.63385 68.1483 8.60626C67.762 8.91264 67.0826 9.35222 66.017 9.55203C64.8847 9.76516 62.7401 9.7918 55.4937 4.99637C53.349 3.57106 52.1768 2.66525 50.1787 2.41216C48.7534 2.22567 47.6345 2.46544 46.5155 2.70521C42.9723 3.45117 40.801 5.28942 40.3481 5.67572C39.8685 6.08866 39.4156 6.55488 39.0027 7.04775C39.3757 7.3408 39.9351 7.84699 40.4147 8.61958C41.2273 9.92501 41.9998 12.2561 40.9475 13.5083C40.6545 13.8546 40.135 14.2276 39.4956 14.3208C39.3624 14.3341 38.7363 14.4141 38.1502 14.0944C36.8448 13.3751 36.6849 11.2171 36.8181 10.1781ZM40.3481 11.4169C40.6012 10.631 39.8019 9.35222 38.8429 8.20664C38.6963 8.44641 38.5098 8.79275 38.3633 9.24566C38.2434 9.63196 38.0037 10.3912 38.2301 11.2438C38.3234 11.5768 38.5631 12.4826 39.1359 12.5625C39.5622 12.6291 40.095 12.1629 40.3481 11.4169Z" fill="#A5C2BF"/>
<path d="M18.8886 32.0239C18.6088 29.7195 19.9676 27.8812 20.2073 27.6148C22.4452 25.1239 26.0951 25.8565 26.3082 25.8965C26.2016 25.3903 26.0951 24.6043 26.2283 23.6852C26.3215 23.0458 26.5746 21.2076 28.0399 20.062C29.625 18.8232 32.3158 18.65 33.4747 19.9688C34.1141 20.7014 34.0741 21.6472 34.0741 21.8337C34.0741 23.0592 33.1683 24.4312 32.1693 24.4711C31.703 24.4845 31.1969 24.2181 30.9438 23.8184C30.744 23.4987 30.5974 22.9393 30.8638 22.6329C30.997 22.473 31.2501 22.3665 31.4366 22.4331C31.5832 22.4864 31.5832 22.6329 31.7563 22.8061C31.9162 22.9659 32.1826 23.1124 32.3824 23.0858C32.822 23.0192 33.2349 22.1134 33.0085 21.4207C32.8087 20.808 32.2092 20.5415 32.0494 20.4749C30.8106 19.9155 29.0389 20.5282 28.0265 21.6472C26.9609 22.8194 26.7211 24.6177 27.3339 26.2694C27.9599 26.4692 28.586 26.7223 29.1588 27.0021C31.0637 27.9079 32.8753 29.6396 32.3291 31.9041C31.7563 34.2485 29.6916 33.1429 28.4661 31.6243C27.6669 30.6386 27.0675 29.2932 26.7211 27.8279C26.175 27.6548 25.6155 27.4949 25.0694 27.4283C22.8448 27.122 20.7801 27.748 20.0075 29.9193C19.8477 30.3855 19.5813 31.0782 19.7811 31.8375C20.1141 33.063 21.5527 33.9688 22.1521 33.6491C22.4585 33.4892 22.6317 32.9431 22.5384 32.5435C22.4319 32.0639 22.0189 31.9307 22.0722 31.5178C22.0989 31.2913 22.2587 31.0915 22.4452 30.9849C22.6317 30.8917 22.8448 30.8917 22.9514 30.9317C23.6041 31.1315 24.1369 33.1562 23.2045 34.3551C21.5927 36.4331 19.1284 33.9288 18.8886 32.0239ZM31.1969 31.571C32.7154 31.7043 29.3186 28.9069 28.7459 28.6272C28.4928 28.5073 28.2397 28.3874 27.9733 28.2808C28.6793 30.0392 29.8115 31.4512 31.1969 31.571Z" fill="#A5C2BF"/>
<path d="M3.06356 3.14491C2.957 3.22483 3.18345 3.63777 3.35662 3.95747C3.60971 4.39705 8.55167 12.9889 11.1625 13.3219C11.3357 13.3485 11.8285 13.4018 12.1616 13.1221C12.5079 12.829 12.5212 12.3095 12.5212 12.123C12.5612 9.79191 5.98079 5.3961 3.80952 3.59781C3.64967 3.45128 3.17013 3.05167 3.06356 3.14491Z" fill="#A5C2BF"/>
</g>
<defs>
<clipPath id="clip0_4_914">
<rect width="70" height="70.706" fill="white" transform="matrix(1 0 0 -1 0 71.0801)"/>
</clipPath>
</defs>
</svg>
