<svg width="70" height="72" viewBox="0 0 70 72" fill="none" xmlns="http://www.w3.org/2000/svg">
<path d="M65.7107 28.7603C66.7764 27.4815 67.136 26.2427 67.5623 24.7241C68.0285 23.0724 68.1484 21.6204 68.1218 14.6271C68.1218 14.6271 68.1218 9.6851 68.1351 9.05903C68.1351 9.05903 68.3083 4.06379 68.1218 2.7184C68.1218 2.67844 68.0951 2.59852 68.0418 2.55856C68.0019 2.54524 67.9486 2.54524 67.9086 2.53192C67.8953 2.46531 67.882 2.39871 67.8687 2.31879C67.8287 2.2655 67.7488 2.23886 67.7088 2.23886C66.3634 2.03905 61.3682 2.22554 61.3682 2.22554C60.7421 2.25218 60.3825 2.23886 59.4101 2.23886C58.7174 2.23886 55.8002 2.25218 55.8002 2.25218C48.8068 2.22554 47.3549 2.34543 45.7031 2.81165C44.1846 3.25123 42.9457 3.59757 41.667 4.66322C38.2569 7.51384 38.4167 12.2293 38.4434 12.8821C38.4966 14.1209 38.6432 17.158 41.1075 19.4092C41.4139 19.6889 44.3577 22.2864 48.2207 21.3673C48.3539 21.3407 48.8202 21.2208 49.4329 20.9677C49.1665 21.5938 49.0466 22.0866 49.0066 22.2198C48.0742 26.0828 50.6717 29.0134 50.9648 29.3331C53.216 31.7974 56.2531 31.9306 57.4919 31.9972C58.1446 32.0105 62.8601 32.1704 65.7107 28.7603ZM50.2055 25.3502C49.5261 23.432 50.1789 21.6204 50.2055 21.5405C50.4186 20.9544 50.725 20.4881 51.0447 20.0885C51.3644 19.6756 51.9638 19.0362 52.8963 18.5833C53.2959 18.3835 55.2673 17.4777 57.3587 18.4501C57.5452 18.5433 59.9296 19.7022 60.1027 22.0467C60.1827 23.1656 59.783 24.6708 58.6508 25.2836C58.4643 25.3901 57.7716 25.8031 56.9457 25.59C56.4129 25.4434 55.8535 25.0571 55.6403 24.4977C55.4139 23.8849 55.5338 23.139 55.5604 22.9924C55.6403 22.5928 55.7868 22.3131 55.627 22.1266C55.5071 21.9801 55.2807 21.9401 55.0942 21.9934C55.0009 22.02 54.8011 22.1399 54.6146 22.7127C54.1617 24.0714 54.588 25.3235 54.6679 25.5367C55.0942 26.1894 55.7069 26.4691 55.96 26.589C57.0257 27.0685 58.1846 26.8821 58.8506 26.589C60.8354 25.7098 61.9277 22.3131 60.7421 19.7688C59.53 17.1713 56.293 16.2655 53.8154 16.8783C53.6822 16.9049 53.5623 16.9582 53.4291 16.9981C53.4824 16.8516 53.5223 16.7184 53.5623 16.5586C54.175 14.0809 53.2692 10.844 50.6717 9.63182C48.1408 8.44628 44.744 9.5519 43.8515 11.5234C43.8249 11.6033 43.1056 13.0819 43.8515 14.4139C44.7041 15.9458 46.8087 16.0391 47.7279 15.7593C47.941 15.6927 48.4205 15.5595 48.4472 15.2798C48.4738 15.1066 48.314 14.9068 48.1541 14.8269C47.9277 14.707 47.6746 14.7869 47.4614 14.8269C46.8753 14.9468 46.2892 14.8668 45.9562 14.7469C45.3967 14.5338 44.9971 13.9743 44.8639 13.4415C44.6508 12.6156 45.0637 11.9363 45.1703 11.7365C45.783 10.6042 47.2883 10.2046 48.4072 10.2845C50.7516 10.4577 51.9239 12.8421 52.0038 13.0286C52.9762 15.1066 52.0704 17.0914 51.8706 17.491C51.391 18.4501 50.725 19.0628 50.3121 19.3825C50.0057 19.6223 49.5395 19.942 48.9134 20.1818C48.8335 20.2084 47.0085 20.8611 45.1037 20.1818C41.3872 18.863 39.1627 13.2018 40.6146 9.12564C40.7745 8.65941 41.5071 6.70128 43.3986 5.38253C44.5842 4.55665 45.7431 4.31688 46.2892 4.197C49.02 3.65085 56.3463 3.62421 66.177 4.22364C66.7897 14.0809 66.7497 21.4339 66.2169 24.178C66.1103 24.7374 65.8706 25.883 65.0314 27.0685C63.6993 28.9601 61.7545 29.6927 61.2883 29.8526C57.1855 31.2912 51.5242 29.0666 50.2055 25.3502Z" fill="#A5C2BF"/>
<path d="M67.7754 63.1809C67.6955 63.1276 67.5756 63.0877 67.4424 63.101C67.0828 63.141 66.7364 63.5805 66.7498 63.9535C66.7631 64.3265 67.1227 64.4464 67.6023 64.9526C67.7088 65.0724 68.4548 65.9116 68.4282 66.4844C68.3216 68.9088 61.5547 70.1743 62.687 65.0325C63.0466 63.394 64.6184 61.5558 65.5109 60.277C67.2426 57.8127 69.1208 55.8279 69.667 52.7908C70.4662 48.395 68.5614 42.2941 64.7517 39.2037C68.548 35.4074 68.7745 29.0667 67.8687 23.9916C67.8021 23.5919 67.509 23.2989 67.3359 23.3655C67.2293 23.4055 67.216 23.6852 67.2027 23.9116C67.1361 24.7508 66.8164 25.2437 66.6965 25.6167C66.3102 26.7889 67.1094 29.0268 67.0162 31.2646C66.9096 34.022 65.471 36.7661 63.4596 38.2713C62.607 37.845 61.7412 37.5253 60.8087 37.3655C58.8373 37.0325 56.7593 37.8051 57.1855 40.0429C57.8382 43.3864 61.3149 41.7613 63.2198 40.5092C63.4063 40.3893 63.5794 40.2428 63.7526 40.1096C66.1636 41.788 67.9353 44.5453 68.4814 47.3959C69.334 51.7918 67.4025 54.2561 65.0714 57.453C62.5537 60.8898 58.8772 65.6852 62.8068 69.6947C67.1893 74.1704 73.3568 66.8041 67.7754 63.1809ZM60.2493 38.6176C61.0352 38.631 61.6746 38.9107 62.1142 39.1771C61.9543 39.3236 61.6879 39.5501 61.3416 39.7765C61.2483 39.8298 59.3035 41.0287 58.5576 40.336C58.2911 40.0829 58.2112 39.6167 58.3577 39.2837C58.6641 38.591 59.8763 38.6176 60.2493 38.6176Z" fill="#A5C2BF"/>
<path d="M33.1818 10.1781C33.0619 9.24565 32.7955 8.36649 32.3958 7.54061C33.0352 6.84794 33.6746 6.28847 34.0343 6.03538C35.4596 5.02301 37.1513 4.46354 38.8564 4.14385C41.5471 3.62434 44.3045 3.75755 47.0086 4.02396C47.3949 4.06392 47.235 2.59865 46.8354 2.51873C41.4938 1.533 35.2864 2.03919 31.6499 6.22187C28.6661 1.86602 22.1789 -0.398494 17.3302 0.986854C14.3197 1.8527 11.882 4.38362 9.32448 6.06202C8.17891 6.80797 6.92677 7.71378 5.51478 7.84698C0.0666313 8.32653 2.45103 -0.957963 6.63371 3.87743C6.68699 3.93071 6.83352 4.11721 7.03333 4.10389C7.25978 4.10389 7.44627 3.86411 7.51287 3.70426C7.75264 3.19808 7.2731 2.50541 7.07329 2.21235C6.87348 1.93262 5.91439 0.533951 4.31592 0.387424C2.38443 0.214255 0.612782 1.95926 0.146561 3.82415C-0.346306 5.76896 0.652744 7.63385 1.8516 8.60626C2.2379 8.91264 2.91725 9.35222 3.9829 9.55203C5.11516 9.76516 7.25978 9.7918 14.5062 4.99637C16.6508 3.57106 17.8231 2.66525 19.8212 2.41216C21.2465 2.22567 22.3654 2.46544 23.4843 2.70521C27.0276 3.45117 29.1989 5.28942 29.6518 5.67572C30.1313 6.08866 30.5842 6.55488 30.9972 7.04775C30.6242 7.3408 30.0647 7.84699 29.5852 8.61958C28.7726 9.92501 28 12.2561 29.0524 13.5083C29.3454 13.8546 29.8649 14.2276 30.5043 14.3208C30.6375 14.3341 31.2636 14.4141 31.8497 14.0944C33.1551 13.3751 33.315 11.2171 33.1818 10.1781ZM29.6518 11.4169C29.3987 10.631 30.1979 9.35222 31.157 8.20664C31.3035 8.44641 31.49 8.79275 31.6366 9.24566C31.7565 9.63196 31.9962 10.3912 31.7698 11.2438C31.6765 11.5768 31.4368 12.4826 30.864 12.5625C30.4377 12.6291 29.9049 12.1629 29.6518 11.4169Z" fill="#A5C2BF"/>
<path d="M51.1113 32.0239C51.391 29.7195 50.0323 27.8812 49.7926 27.6148C47.5547 25.1239 43.9048 25.8565 43.6917 25.8965C43.7983 25.3903 43.9048 24.6043 43.7716 23.6852C43.6784 23.0458 43.4253 21.2076 41.96 20.062C40.3749 18.8232 37.6841 18.65 36.5252 19.9688C35.8858 20.7014 35.9258 21.6472 35.9258 21.8337C35.9258 23.0592 36.8316 24.4312 37.8306 24.4711C38.2968 24.4845 38.803 24.2181 39.0561 23.8184C39.2559 23.4987 39.4024 22.9393 39.136 22.6329C39.0028 22.473 38.7497 22.3665 38.5632 22.4331C38.4167 22.4864 38.4167 22.6329 38.2436 22.8061C38.0837 22.9659 37.8173 23.1124 37.6175 23.0858C37.1779 23.0192 36.765 22.1134 36.9914 21.4207C37.1912 20.808 37.7907 20.5415 37.9505 20.4749C39.1893 19.9155 40.961 20.5282 41.9733 21.6472C43.039 22.8194 43.2788 24.6177 42.666 26.2694C42.0399 26.4692 41.4139 26.7223 40.8411 27.0021C38.9362 27.9079 37.1246 29.6396 37.6708 31.9041C38.2436 34.2485 40.3083 33.1429 41.5337 31.6243C42.333 30.6386 42.9324 29.2932 43.2788 27.8279C43.8249 27.6548 44.3844 27.4949 44.9305 27.4283C47.1551 27.122 49.2198 27.748 49.9924 29.9193C50.1522 30.3855 50.4186 31.0782 50.2188 31.8375C49.8858 33.063 48.4472 33.9688 47.8477 33.6491C47.5414 33.4892 47.3682 32.9431 47.4614 32.5435C47.568 32.0639 47.9809 31.9307 47.9277 31.5178C47.901 31.2913 47.7412 31.0915 47.5547 30.9849C47.3682 30.8917 47.1551 30.8917 47.0485 30.9317C46.3958 31.1315 45.863 33.1562 46.7954 34.3551C48.4072 36.4331 50.8715 33.9288 51.1113 32.0239ZM38.803 31.571C37.2845 31.7043 40.6812 28.9069 41.254 28.6272C41.5071 28.5073 41.7602 28.3874 42.0266 28.2808C41.3206 30.0392 40.1884 31.4512 38.803 31.571Z" fill="#A5C2BF"/>
<path d="M66.9362 3.14491C67.0428 3.22483 66.8163 3.63777 66.6431 3.95747C66.39 4.39705 61.4481 12.9889 58.8372 13.3219C58.6641 13.3485 58.1712 13.4018 57.8382 13.1221C57.4919 12.829 57.4785 12.3095 57.4785 12.123C57.4386 9.79191 64.019 5.3961 66.1902 3.59781C66.3501 3.45128 66.8296 3.05167 66.9362 3.14491Z" fill="#A5C2BF"/>
</svg>
