<svg width="18" height="132" viewBox="0 0 18 132" fill="none" xmlns="http://www.w3.org/2000/svg">
<g clip-path="url(#clip0_4_936)">
<path d="M3.78341 46.438C6.58087 43.0963 12.1758 39.7782 10.8 34.6479C10.2497 32.577 7.9108 30.6708 6.03055 31.0709C4.28787 31.4239 2.86622 33.7772 3.34775 34.8362C3.53118 35.2362 4.17322 35.8481 4.95284 36.0599C5.34265 36.1776 5.64074 36.154 5.77832 36.3894C5.98469 36.7188 5.80125 37.3307 5.4573 37.6602C4.67768 38.3662 2.63692 37.9426 1.78851 36.6482C1.14647 35.6598 1.32991 34.4596 1.49042 33.9184C2.06367 31.8239 3.78341 30.0119 5.75539 29.3059C8.50698 28.3175 11.5337 29.8707 12.3133 32.7888C13.0012 35.3774 11.786 38.4132 10.3872 40.5312C10.1121 40.8842 9.83692 41.2372 9.56176 41.5902C11.0063 40.8371 13.0471 40.1076 15.042 40.8842C15.5006 41.0725 16.6471 41.5431 17.3579 42.7904C17.4955 43.0493 18.2293 44.4142 17.7019 45.9909C17.2433 47.3794 15.9592 48.4384 14.5146 48.5796C13.4598 48.6972 11.8777 48.3207 11.3044 47.0264C10.8229 45.8968 11.3044 44.5083 11.9235 44.0377C12.0382 43.9671 12.2904 43.7788 12.5885 43.8494C12.8178 43.8965 13.0242 44.0847 13.07 44.2965C13.1388 44.5554 12.9783 44.6966 12.8637 45.0731C12.8407 45.1202 12.6344 45.7791 12.7949 46.2262C13.0242 46.8381 13.9872 47.1911 14.7669 47.0499C15.9363 46.8616 16.4178 45.685 16.4407 45.5909C16.8535 44.4848 16.3949 43.3317 15.7987 42.6727C14.9732 41.7549 13.7809 41.6843 13.0242 41.6608C11.0293 41.5902 9.26367 42.4609 7.95666 43.4023C5.73246 45.685 3.25603 47.7559 2.22418 50.9329C1.10061 54.4629 1.35284 59.1695 4.01271 61.9935C5.4573 63.5232 7.54392 64.1115 9.5159 63.4526C12.6344 62.4642 13.1618 59.2872 11.9694 56.675C11.3732 55.4042 10.4331 54.2511 9.24074 53.5215C8.85093 53.2862 7.42927 52.6743 6.71844 53.3333C6.12227 53.8981 6.23692 55.2159 6.81016 55.9219C7.26876 56.4867 7.81908 56.3691 7.97959 56.8397C8.16303 57.4281 7.58978 58.3694 6.83309 58.5812C6.05348 58.793 5.25093 58.1341 4.81526 57.5693C2.91208 55.1924 6.1452 49.6386 9.97449 51.1682C14.056 52.792 15.0879 58.6753 12.7719 62.0876C9.92863 66.3001 4.01271 66.9355 1.42163 62.1112C-1.35289 56.9809 0.229276 50.674 3.78341 46.438Z" fill="#A5C2BF"/>
<path d="M3.89818 82.938C6.69563 79.5962 12.2905 76.2781 10.9147 71.1478C10.3644 69.0769 8.02557 67.1707 6.12238 67.5708C4.37971 67.9238 2.95805 70.2771 3.43958 71.3361C3.62302 71.7361 4.26506 72.348 5.04467 72.5833C5.43448 72.701 5.73257 72.6775 5.87015 72.9128C6.07652 73.2423 5.89308 73.8541 5.54913 74.1836C4.76952 74.8896 2.72875 74.466 1.88034 73.1717C1.21538 72.1833 1.42175 70.9831 1.58226 70.4418C2.1555 68.3474 3.87525 66.5353 5.84722 65.8293C8.59881 64.8409 11.6256 66.3941 12.4052 69.3122C13.0931 71.9009 11.8778 74.9367 10.4791 77.0547C10.2268 77.4312 9.97461 77.7842 9.69945 78.1136C11.144 77.3606 13.1848 76.6311 15.1797 77.4076C15.6383 77.5959 16.7848 78.0666 17.4956 79.3138C17.6332 79.5727 18.367 80.9376 17.8396 82.5144C17.381 83.9028 16.0969 84.9618 14.6523 85.103C13.5975 85.2207 12.0154 84.8441 11.4421 83.5498C10.9606 82.4202 11.4421 81.0318 12.0612 80.5611C12.1759 80.467 12.4281 80.2787 12.7262 80.3493C12.9555 80.3964 13.1619 80.5846 13.2077 80.7964C13.2765 81.0553 13.116 81.1965 13.0014 81.573C12.9784 81.6201 12.7721 82.279 12.9326 82.7262C13.1619 83.338 14.1249 83.691 14.9045 83.5498C16.051 83.338 16.5326 82.1614 16.5555 82.0672C16.9682 80.9612 16.5096 79.808 15.9135 79.1491C15.088 78.2313 13.8956 78.1842 13.1389 78.1372C11.167 78.0666 9.40136 78.9373 8.07143 79.8786C5.84722 82.1614 3.37079 84.2323 2.33894 87.4093C1.21537 90.9392 1.4676 95.6459 4.12748 98.4699C5.57206 99.9995 7.65869 100.588 9.63066 99.9289C12.7491 98.9405 13.2765 95.7635 12.0842 93.1514C11.488 91.8806 10.5479 90.7274 9.3555 89.9979C8.96569 89.7626 7.54404 89.1507 6.83321 89.8096C6.23703 90.3744 6.35168 91.6923 6.92493 92.3983C7.38353 92.9631 7.93385 92.8454 8.09435 93.3161C8.27779 93.9044 7.70455 94.8458 6.94786 95.0576C6.16824 95.2693 5.36569 94.6104 4.93002 94.0456C3.04977 91.6452 6.28289 86.0914 10.1122 87.6211C14.1937 89.2448 15.2256 95.1281 12.9096 98.5405C10.0663 102.753 4.15041 103.388 1.55932 98.564C-1.23813 93.5044 0.344037 87.1739 3.89818 82.938Z" fill="#A5C2BF"/>
</g>
<rect x="7" width="1" height="30" fill="#A5C2BF"/>
<rect x="7" y="102" width="1" height="30" fill="#A5C2BF"/>
<defs>
<clipPath id="clip0_4_936">
<rect width="73" height="18" fill="white" transform="translate(18 29) rotate(90)"/>
</clipPath>
</defs>
</svg>
