<svg width="70" height="71" viewBox="0 0 70 71" fill="none" xmlns="http://www.w3.org/2000/svg">
<g clip-path="url(#clip0_4_907)">
<path d="M4.28903 42.3198C3.22337 43.5986 2.86372 44.8374 2.43746 46.356C1.97123 48.0077 1.85135 49.4597 1.87799 56.453C1.87799 56.453 1.87799 61.395 1.86467 62.0211C1.86467 62.0211 1.6915 67.0163 1.87799 68.3617C1.87799 68.4016 1.90463 68.4816 1.95791 68.5215C1.99787 68.5348 2.05116 68.5348 2.09112 68.5482C2.10444 68.6148 2.11776 68.6814 2.13108 68.7613C2.17104 68.8146 2.25097 68.8412 2.29093 68.8412C3.63631 69.041 8.63156 68.8545 8.63156 68.8545C9.25763 68.8279 9.61728 68.8412 10.5897 68.8412C11.2824 68.8412 14.1996 68.8279 14.1996 68.8279C21.1929 68.8545 22.6449 68.7347 24.2966 68.2684C25.8152 67.8289 27.054 67.4825 28.3328 66.4169C31.7429 63.5662 31.583 58.8507 31.5564 58.198C31.5031 56.9592 31.3566 53.9221 28.8923 51.6709C28.5859 51.3912 25.642 48.7936 21.779 49.7128C21.6458 49.7394 21.1796 49.8593 20.5669 50.1124C20.8333 49.4863 20.9532 48.9935 20.9931 48.8602C21.9256 44.9973 19.328 42.0667 19.035 41.747C16.7838 39.2827 13.7467 39.1495 12.5079 39.0829C11.8552 39.0696 7.13964 38.9097 4.28903 42.3198ZM19.7943 45.7299C20.4736 47.6481 19.8209 49.4597 19.7943 49.5396C19.5811 50.1257 19.2748 50.5919 18.9551 50.9916C18.6354 51.4045 18.0359 52.0439 17.1035 52.4968C16.7039 52.6966 14.7324 53.6024 12.6411 52.63C12.4546 52.5367 10.0702 51.3779 9.89702 49.0334C9.81709 47.9145 10.2167 46.4093 11.349 45.7965C11.5355 45.6899 12.2281 45.277 13.054 45.4901C13.5868 45.6367 14.1463 46.023 14.3594 46.5824C14.5859 47.1952 14.466 47.9411 14.4394 48.0876C14.3594 48.4873 14.2129 48.767 14.3728 48.9535C14.4926 49.1 14.7191 49.14 14.9056 49.0867C14.9988 49.0601 15.1986 48.9402 15.3851 48.3674C15.838 47.0087 15.4118 45.7565 15.3318 45.5434C14.9056 44.8907 14.2928 44.611 14.0397 44.4911C12.9741 44.0115 11.8152 44.198 11.1492 44.4911C9.16438 45.3702 8.07209 48.767 9.25763 51.3112C10.4698 53.9088 13.7067 54.8146 16.1844 54.2018C16.3176 54.1752 16.4375 54.1219 16.5707 54.0819C16.5174 54.2285 16.4774 54.3617 16.4375 54.5215C15.8247 56.9992 16.7305 60.2361 19.328 61.4483C21.859 62.6338 25.2557 61.5282 26.1482 59.5567C26.1748 59.4768 26.8942 57.9982 26.1482 56.6661C25.2957 55.1343 23.191 55.041 22.2719 55.3208C22.0588 55.3874 21.5792 55.5206 21.5526 55.8003C21.5259 55.9735 21.6858 56.1733 21.8456 56.2532C22.0721 56.3731 22.3252 56.2932 22.5383 56.2532C23.1244 56.1333 23.7105 56.2132 24.0435 56.3331C24.603 56.5463 25.0026 57.1057 25.1358 57.6386C25.349 58.4644 24.936 59.1438 24.8295 59.3436C24.2167 60.4759 22.7115 60.8755 21.5925 60.7955C19.2481 60.6224 18.0759 58.238 17.996 58.0515C17.0236 55.9735 17.9294 53.9887 18.1292 53.5891C18.6087 52.63 19.2748 52.0172 19.6877 51.6975C19.9941 51.4578 20.4603 51.1381 21.0864 50.8983C21.1663 50.8717 22.9912 50.219 24.8961 50.8983C28.6125 52.2171 30.8371 57.8783 29.3851 61.9544C29.2253 62.4207 28.4926 64.3788 26.6011 65.6975C25.4156 66.5234 24.2567 66.7632 23.7105 66.8831C20.9798 67.4292 13.6534 67.4559 3.8228 66.8564C3.21005 56.9992 3.25001 49.6462 3.78284 46.9021C3.88941 46.3426 4.12918 45.1971 4.96838 44.0115C6.30044 42.12 8.24526 41.3874 8.71148 41.2275C12.8142 39.7889 18.4755 42.0134 19.7943 45.7299Z" fill="#A5C2BF"/>
<path d="M2.22444 7.89917C2.30436 7.95245 2.42425 7.99241 2.55745 7.97909C2.91711 7.93913 3.26345 7.49955 3.25013 7.12657C3.23681 6.75359 2.87715 6.6337 2.39761 6.12752C2.29104 6.00763 1.54508 5.16843 1.57173 4.59564C1.67829 2.17129 8.44518 0.905825 7.31292 6.0476C6.95327 7.68604 5.38143 9.52428 4.48895 10.8031C2.75726 13.2674 0.879052 15.2522 0.332905 18.2893C-0.466334 22.6851 1.43852 28.7859 5.24822 31.8763C1.45184 35.6727 1.22539 42.0133 2.13119 47.0885C2.1978 47.4881 2.49085 47.7812 2.66402 47.7146C2.77058 47.6746 2.7839 47.3949 2.79722 47.1684C2.86383 46.3292 3.18352 45.8364 3.30341 45.4634C3.68971 44.2912 2.89047 42.0533 2.98371 39.8154C3.09028 37.0581 4.52891 34.314 6.54033 32.8088C7.39285 33.235 8.25869 33.5547 9.19114 33.7146C11.1626 34.0476 13.2406 33.275 12.8144 31.0371C12.1616 27.6936 8.68495 29.3188 6.7801 30.5709C6.59361 30.6908 6.42044 30.8373 6.24727 30.9705C3.83624 29.2921 2.06459 26.5348 1.51844 23.6841C0.665921 19.2883 2.59742 16.824 4.92853 13.627C7.44613 10.1903 11.1226 5.39488 7.19304 1.38537C2.81055 -3.09037 -3.35691 4.27595 2.22444 7.89917ZM9.7506 32.4624C8.96468 32.4491 8.32529 32.1694 7.88571 31.903C8.04556 31.7564 8.31197 31.53 8.65831 31.3035C8.75155 31.2503 10.6964 30.0514 11.4423 30.7441C11.7087 30.9972 11.7887 31.4634 11.6421 31.7964C11.3358 32.4891 10.1236 32.4624 9.7506 32.4624Z" fill="#A5C2BF"/>
<path d="M36.8181 60.902C36.938 61.8344 37.2044 62.7136 37.604 63.5395C36.9646 64.2321 36.3253 64.7916 35.9656 65.0447C34.5403 66.0571 32.8486 66.6165 31.1435 66.9362C28.4527 67.4557 25.6954 67.3225 22.9913 67.0561C22.605 67.0162 22.7648 68.4814 23.1645 68.5614C28.506 69.5471 34.7135 69.0409 38.35 64.8582C41.3338 69.2141 47.821 71.4786 52.6697 70.0932C55.6802 69.2274 58.1178 66.6965 60.6754 65.0181C61.821 64.2721 63.0731 63.3663 64.4851 63.2331C69.9332 62.7536 67.5489 72.038 63.3662 67.2026C63.3129 67.1494 63.1664 66.9629 62.9665 66.9762C62.7401 66.9762 62.5536 67.216 62.487 67.3758C62.2472 67.882 62.7268 68.5747 62.9266 68.8677C63.1264 69.1475 64.0855 70.5461 65.684 70.6927C67.6155 70.8658 69.3871 69.1208 69.8533 67.2559C70.3462 65.3111 69.3471 63.4462 68.1483 62.4738C67.762 62.1674 67.0826 61.7279 66.017 61.528C64.8847 61.3149 62.7401 61.2883 55.4937 66.0837C53.349 67.509 52.1768 68.4148 50.1787 68.6679C48.7534 68.8544 47.6345 68.6146 46.5155 68.3749C42.9723 67.6289 40.801 65.7907 40.3481 65.4044C39.8685 64.9914 39.4156 64.5252 39.0027 64.0323C39.3757 63.7393 39.9351 63.2331 40.4147 62.4605C41.2273 61.1551 41.9998 58.824 40.9475 57.5718C40.6545 57.2255 40.135 56.8525 39.4956 56.7593C39.3624 56.7459 38.7363 56.666 38.1502 56.9857C36.8448 57.705 36.6849 59.863 36.8181 60.902ZM40.3481 59.6632C40.6012 60.4491 39.8019 61.7279 38.8429 62.8734C38.6963 62.6337 38.5098 62.2873 38.3633 61.8344C38.2434 61.4481 38.0037 60.6888 38.2301 59.8363C38.3234 59.5033 38.5631 58.5975 39.1359 58.5176C39.5622 58.451 40.095 58.9172 40.3481 59.6632Z" fill="#A5C2BF"/>
<path d="M18.8886 39.0561C18.6088 41.3606 19.9676 43.1989 20.2073 43.4653C22.4452 45.9562 26.0951 45.2236 26.3082 45.1836C26.2016 45.6898 26.0951 46.4757 26.2283 47.3949C26.3215 48.0342 26.5746 49.8725 28.0399 51.0181C29.625 52.2569 32.3158 52.4301 33.4747 51.1113C34.1141 50.3787 34.0741 49.4329 34.0741 49.2464C34.0741 48.0209 33.1683 46.6489 32.1693 46.6089C31.703 46.5956 31.1969 46.862 30.9438 47.2616C30.744 47.5813 30.5974 48.1408 30.8638 48.4472C30.997 48.607 31.2501 48.7136 31.4366 48.647C31.5832 48.5937 31.5832 48.4472 31.7563 48.274C31.9162 48.1142 32.1826 47.9676 32.3824 47.9943C32.822 48.0609 33.2349 48.9667 33.0085 49.6594C32.8087 50.2721 32.2092 50.5385 32.0494 50.6051C30.8106 51.1646 29.0389 50.5518 28.0265 49.4329C26.9609 48.2607 26.7211 46.4624 27.3339 44.8106C27.9599 44.6108 28.586 44.3577 29.1588 44.078C31.0637 43.1722 32.8753 41.4405 32.3291 39.176C31.7563 36.8316 29.6916 37.9372 28.4661 39.4558C27.6669 40.4415 27.0675 41.7869 26.7211 43.2521C26.175 43.4253 25.6155 43.5852 25.0694 43.6518C22.8448 43.9581 20.7801 43.3321 20.0075 41.1608C19.8477 40.6946 19.5813 40.0019 19.7811 39.2426C20.1141 38.0171 21.5527 37.1113 22.1521 37.431C22.4585 37.5909 22.6317 38.137 22.5384 38.5366C22.4319 39.0162 22.0189 39.1494 22.0722 39.5623C22.0989 39.7888 22.2587 39.9886 22.4452 40.0951C22.6317 40.1884 22.8448 40.1884 22.9514 40.1484C23.6041 39.9486 24.1369 37.9239 23.2045 36.725C21.5927 34.647 19.1284 37.1513 18.8886 39.0561ZM31.1969 39.509C32.7154 39.3758 29.3186 42.1732 28.7459 42.4529C28.4928 42.5728 28.2397 42.6927 27.9733 42.7992C28.6793 41.0409 29.8115 39.6289 31.1969 39.509Z" fill="#A5C2BF"/>
<path d="M3.06356 67.9352C2.957 67.8552 3.18345 67.4423 3.35662 67.1226C3.60971 66.683 8.55167 58.0912 11.1625 57.7582C11.3357 57.7316 11.8285 57.6783 12.1616 57.958C12.5079 58.2511 12.5212 58.7706 12.5212 58.9571C12.5612 61.2882 5.98079 65.684 3.80952 67.4823C3.64967 67.6288 3.17013 68.0284 3.06356 67.9352Z" fill="#A5C2BF"/>
</g>
<defs>
<clipPath id="clip0_4_907">
<rect width="70" height="70.706" fill="white"/>
</clipPath>
</defs>
</svg>
