<svg width="70" height="71" viewBox="0 0 70 71" fill="none" xmlns="http://www.w3.org/2000/svg">
<path d="M65.7107 42.3198C66.7764 43.5986 67.136 44.8374 67.5623 46.356C68.0285 48.0077 68.1484 49.4597 68.1218 56.453C68.1218 56.453 68.1218 61.395 68.1351 62.0211C68.1351 62.0211 68.3083 67.0163 68.1218 68.3617C68.1218 68.4016 68.0951 68.4816 68.0418 68.5215C68.0019 68.5348 67.9486 68.5348 67.9086 68.5482C67.8953 68.6148 67.882 68.6814 67.8687 68.7613C67.8287 68.8146 67.7488 68.8412 67.7088 68.8412C66.3634 69.041 61.3682 68.8545 61.3682 68.8545C60.7421 68.8279 60.3825 68.8412 59.4101 68.8412C58.7174 68.8412 55.8002 68.8279 55.8002 68.8279C48.8068 68.8545 47.3549 68.7347 45.7031 68.2684C44.1846 67.8289 42.9457 67.4825 41.667 66.4169C38.2569 63.5662 38.4167 58.8507 38.4434 58.198C38.4967 56.9592 38.6432 53.9221 41.1075 51.6709C41.4139 51.3912 44.3577 48.7936 48.2207 49.7128C48.3539 49.7394 48.8202 49.8593 49.4329 50.1124C49.1665 49.4863 49.0466 48.9935 49.0066 48.8602C48.0742 44.9973 50.6717 42.0667 50.9648 41.747C53.216 39.2827 56.2531 39.1495 57.4919 39.0829C58.1446 39.0696 62.8601 38.9097 65.7107 42.3198ZM50.2055 45.7299C49.5261 47.6481 50.1789 49.4597 50.2055 49.5396C50.4186 50.1257 50.725 50.5919 51.0447 50.9916C51.3644 51.4045 51.9638 52.0439 52.8963 52.4968C53.2959 52.6966 55.2673 53.6024 57.3587 52.63C57.5452 52.5367 59.9296 51.3779 60.1027 49.0334C60.1827 47.9145 59.783 46.4093 58.6508 45.7965C58.4643 45.6899 57.7716 45.277 56.9457 45.4901C56.4129 45.6367 55.8535 46.023 55.6403 46.5824C55.4139 47.1952 55.5338 47.9411 55.5604 48.0876C55.6403 48.4873 55.7868 48.767 55.627 48.9535C55.5071 49.1 55.2807 49.14 55.0942 49.0867C55.0009 49.0601 54.8011 48.9402 54.6146 48.3674C54.1617 47.0087 54.588 45.7565 54.6679 45.5434C55.0942 44.8907 55.7069 44.611 55.96 44.4911C57.0257 44.0115 58.1846 44.198 58.8506 44.4911C60.8354 45.3702 61.9277 48.767 60.7421 51.3112C59.53 53.9088 56.293 54.8146 53.8154 54.2018C53.6822 54.1752 53.5623 54.1219 53.4291 54.0819C53.4824 54.2285 53.5223 54.3617 53.5623 54.5215C54.1751 56.9992 53.2692 60.2361 50.6717 61.4483C48.1408 62.6338 44.744 61.5282 43.8516 59.5567C43.8249 59.4768 43.1056 57.9982 43.8516 56.6661C44.7041 55.1343 46.8087 55.041 47.7279 55.3208C47.941 55.3874 48.4205 55.5206 48.4472 55.8003C48.4738 55.9735 48.314 56.1733 48.1541 56.2532C47.9277 56.3731 47.6746 56.2932 47.4614 56.2532C46.8753 56.1333 46.2892 56.2132 45.9562 56.3331C45.3967 56.5463 44.9971 57.1057 44.8639 57.6386C44.6508 58.4644 45.0637 59.1438 45.1703 59.3436C45.783 60.4759 47.2883 60.8755 48.4072 60.7955C50.7516 60.6224 51.9239 58.238 52.0038 58.0515C52.9762 55.9735 52.0704 53.9887 51.8706 53.5891C51.391 52.63 50.725 52.0172 50.3121 51.6975C50.0057 51.4578 49.5395 51.1381 48.9134 50.8983C48.8335 50.8717 47.0085 50.219 45.1037 50.8983C41.3872 52.2171 39.1627 57.8783 40.6146 61.9544C40.7745 62.4207 41.5071 64.3788 43.3986 65.6975C44.5842 66.5234 45.7431 66.7632 46.2892 66.8831C49.02 67.4292 56.3463 67.4559 66.177 66.8564C66.7897 56.9992 66.7497 49.6462 66.2169 46.9021C66.1104 46.3426 65.8706 45.1971 65.0314 44.0115C63.6993 42.12 61.7545 41.3874 61.2883 41.2275C57.1855 39.7889 51.5242 42.0134 50.2055 45.7299Z" fill="#A5C2BF"/>
<path d="M67.7754 7.89917C67.6955 7.95245 67.5756 7.99241 67.4424 7.97909C67.0828 7.93913 66.7364 7.49955 66.7498 7.12657C66.7631 6.75359 67.1227 6.6337 67.6023 6.12752C67.7088 6.00763 68.4548 5.16843 68.4282 4.59564C68.3216 2.17129 61.5547 0.905825 62.687 6.0476C63.0466 7.68604 64.6184 9.52428 65.5109 10.8031C67.2426 13.2674 69.1208 15.2522 69.667 18.2893C70.4662 22.6851 68.5614 28.7859 64.7517 31.8763C68.548 35.6727 68.7745 42.0133 67.8687 47.0885C67.8021 47.4881 67.509 47.7812 67.3359 47.7146C67.2293 47.6746 67.216 47.3949 67.2027 47.1684C67.136 46.3292 66.8164 45.8364 66.6965 45.4634C66.3102 44.2912 67.1094 42.0533 67.0162 39.8154C66.9096 37.0581 65.471 34.314 63.4596 32.8088C62.607 33.235 61.7412 33.5547 60.8087 33.7146C58.8373 34.0476 56.7593 33.275 57.1855 31.0371C57.8382 27.6936 61.3149 29.3188 63.2198 30.5709C63.4063 30.6908 63.5794 30.8373 63.7526 30.9705C66.1636 29.2921 67.9353 26.5348 68.4814 23.6841C69.334 19.2883 67.4025 16.824 65.0713 13.627C62.5537 10.1903 58.8772 5.39488 62.8068 1.38537C67.1893 -3.09037 73.3568 4.27595 67.7754 7.89917ZM60.2493 32.4624C61.0352 32.4491 61.6746 32.1694 62.1142 31.903C61.9543 31.7564 61.6879 31.53 61.3416 31.3035C61.2483 31.2503 59.3035 30.0514 58.5576 30.7441C58.2911 30.9972 58.2112 31.4634 58.3577 31.7964C58.6641 32.4891 59.8763 32.4624 60.2493 32.4624Z" fill="#A5C2BF"/>
<path d="M33.1818 60.902C33.0619 61.8344 32.7955 62.7136 32.3958 63.5395C33.0352 64.2321 33.6746 64.7916 34.0343 65.0447C35.4596 66.0571 37.1513 66.6165 38.8564 66.9362C41.5471 67.4557 44.3045 67.3225 47.0086 67.0561C47.3949 67.0162 47.235 68.4814 46.8354 68.5614C41.4938 69.5471 35.2864 69.0409 31.6499 64.8582C28.6661 69.2141 22.1789 71.4786 17.3302 70.0932C14.3197 69.2274 11.882 66.6965 9.32448 65.0181C8.17891 64.2721 6.92677 63.3663 5.51478 63.2331C0.0666313 62.7536 2.45103 72.038 6.63371 67.2026C6.68699 67.1494 6.83352 66.9629 7.03333 66.9762C7.25978 66.9762 7.44627 67.216 7.51287 67.3758C7.75264 67.882 7.2731 68.5747 7.07329 68.8677C6.87348 69.1475 5.91439 70.5461 4.31592 70.6927C2.38443 70.8658 0.612782 69.1208 0.146561 67.2559C-0.346306 65.3111 0.652744 63.4462 1.8516 62.4738C2.2379 62.1674 2.91725 61.7279 3.9829 61.528C5.11516 61.3149 7.25978 61.2883 14.5062 66.0837C16.6508 67.509 17.8231 68.4148 19.8212 68.6679C21.2465 68.8544 22.3654 68.6146 23.4843 68.3749C27.0276 67.6289 29.1989 65.7907 29.6518 65.4044C30.1313 64.9914 30.5842 64.5252 30.9972 64.0323C30.6242 63.7393 30.0647 63.2331 29.5852 62.4605C28.7726 61.1551 28 58.824 29.0524 57.5718C29.3454 57.2255 29.8649 56.8525 30.5043 56.7593C30.6375 56.7459 31.2636 56.666 31.8497 56.9857C33.1551 57.705 33.315 59.863 33.1818 60.902ZM29.6518 59.6632C29.3987 60.4491 30.1979 61.7279 31.157 62.8734C31.3035 62.6337 31.49 62.2873 31.6366 61.8344C31.7565 61.4481 31.9962 60.6888 31.7698 59.8363C31.6765 59.5033 31.4368 58.5975 30.864 58.5176C30.4377 58.451 29.9049 58.9172 29.6518 59.6632Z" fill="#A5C2BF"/>
<path d="M51.1113 39.0561C51.391 41.3606 50.0323 43.1989 49.7926 43.4653C47.5547 45.9562 43.9048 45.2236 43.6917 45.1836C43.7983 45.6898 43.9048 46.4757 43.7716 47.3949C43.6784 48.0342 43.4253 49.8725 41.96 51.0181C40.3749 52.2569 37.6841 52.4301 36.5252 51.1113C35.8858 50.3787 35.9258 49.4329 35.9258 49.2464C35.9258 48.0209 36.8316 46.6489 37.8306 46.6089C38.2968 46.5956 38.803 46.862 39.0561 47.2616C39.2559 47.5813 39.4024 48.1408 39.136 48.4472C39.0028 48.607 38.7497 48.7136 38.5632 48.647C38.4167 48.5937 38.4167 48.4472 38.2436 48.274C38.0837 48.1142 37.8173 47.9676 37.6175 47.9943C37.1779 48.0609 36.765 48.9667 36.9914 49.6594C37.1912 50.2721 37.7907 50.5385 37.9505 50.6051C39.1893 51.1646 40.961 50.5518 41.9733 49.4329C43.039 48.2607 43.2788 46.4624 42.666 44.8106C42.0399 44.6108 41.4139 44.3577 40.8411 44.078C38.9362 43.1722 37.1246 41.4405 37.6708 39.176C38.2436 36.8316 40.3083 37.9372 41.5337 39.4558C42.333 40.4415 42.9324 41.7869 43.2788 43.2521C43.8249 43.4253 44.3844 43.5852 44.9305 43.6518C47.1551 43.9581 49.2198 43.3321 49.9924 41.1608C50.1522 40.6946 50.4186 40.0019 50.2188 39.2426C49.8858 38.0171 48.4472 37.1113 47.8477 37.431C47.5414 37.5909 47.3682 38.137 47.4614 38.5366C47.568 39.0162 47.9809 39.1494 47.9277 39.5623C47.901 39.7888 47.7412 39.9886 47.5547 40.0951C47.3682 40.1884 47.1551 40.1884 47.0485 40.1484C46.3958 39.9486 45.863 37.9239 46.7954 36.725C48.4072 34.647 50.8715 37.1513 51.1113 39.0561ZM38.803 39.509C37.2845 39.3758 40.6812 42.1732 41.254 42.4529C41.5071 42.5728 41.7602 42.6927 42.0266 42.7992C41.3206 41.0409 40.1884 39.6289 38.803 39.509Z" fill="#A5C2BF"/>
<path d="M66.9362 67.9352C67.0428 67.8552 66.8163 67.4423 66.6431 67.1226C66.39 66.683 61.4481 58.0912 58.8372 57.7582C58.6641 57.7316 58.1712 57.6783 57.8382 57.958C57.4919 58.2511 57.4785 58.7706 57.4785 58.9571C57.4386 61.2882 64.019 65.684 66.1902 67.4823C66.3501 67.6288 66.8296 68.0284 66.9362 67.9352Z" fill="#A5C2BF"/>
</svg>
