<svg width="176" height="13" viewBox="0 0 176 13" fill="none" xmlns="http://www.w3.org/2000/svg">
<g clip-path="url(#clip0_1_589)">
<path d="M86.5236 3.90734C84.406 2.22848 79.7383 3.80334 81.1103 6.90848C81.2594 7.26505 81.9305 7.20562 82.199 6.96791C82.5718 6.6262 82.0647 6.0022 82.3928 5.42277C82.7507 4.78391 83.9139 4.47191 84.7341 4.91762C85.3605 5.25934 85.5543 5.91305 85.614 6.13591C85.8377 6.89362 85.614 7.5622 85.5543 7.75534C84.6745 10.2513 80.0366 10.7565 79.5892 10.8011C78.8436 10.8753 78.2918 10.8456 78.1725 10.8456C74.847 10.7862 71.417 9.04791 68.5091 7.62162C64.3782 5.5862 60.1132 3.28334 55.371 3.47648C53.0147 3.56562 50.4647 4.15991 48.4365 5.43762C46.5277 4.11534 44.1864 3.13477 42.8144 2.61477C42.039 2.31763 40.1749 1.61934 37.5204 1.29248C35.2388 1.0102 31.5852 0.891339 26.306 2.4662C17.6268 5.03648 15.8522 8.82505 9.30554 9.2262C8.41078 9.30048 5.23437 9.4342 2.98255 7.51762C2.50534 7.11648 1.67023 6.38848 1.74479 5.42277C1.81935 4.41248 2.89307 3.32791 3.83257 3.52105C4.44399 3.63991 5.01068 4.29362 4.95103 4.82848C4.89137 5.40791 4.08609 5.66048 4.17556 5.88334C4.25013 6.09134 5.02559 6.12105 5.54753 5.74962C6.11422 5.34848 6.35282 4.53134 6.18878 3.90734C5.8607 2.68905 3.9817 1.91648 2.50534 2.30277C-0.969327 3.23877 -0.566684 6.89362 2.10269 8.66162C8.57482 12.9702 17.4777 7.68105 23.2937 4.82848C28.0658 2.48105 33.151 0.906197 38.4301 2.33248C41.3679 3.11991 44.2162 4.4422 46.647 6.28448C46.7812 6.37362 46.9154 6.47762 47.0497 6.59648C45.3645 8.43877 43.8285 12.0193 47.0497 12.9108C48.8243 13.4011 51.1805 12.0788 51.4638 10.2959C51.7322 8.61705 50.6287 7.1462 49.0778 5.92791C51.5235 4.29362 55.5648 4.04105 57.8316 4.53134C61.3659 5.28905 64.5572 7.19077 67.7634 8.78048C72.0285 10.8753 76.7856 12.5245 81.5726 11.4251C84.3464 10.7713 90.6246 7.1462 86.5236 3.90734ZM49.6296 10.3702C48.8988 14.2033 47.1093 10.8605 47.0347 9.8502C46.9602 8.78048 47.2435 7.88905 47.7655 7.1462C48.526 7.78505 49.2716 8.54277 49.4506 9.37477C49.5103 9.62734 49.6892 10.1028 49.6296 10.3702Z" fill="#799D99"/>
<path d="M80.7077 11.1132C78.5305 11.2023 76.5918 10.3555 75.7865 8.82518C75.2497 7.80004 75.1602 6.37375 75.6225 5.49718C75.8312 5.09604 76.0699 4.99204 76.1742 4.96233C76.6067 4.81375 77.1883 5.08118 77.412 5.48233C77.755 6.13604 76.9646 6.92347 77.2927 7.26518C77.4866 7.47318 77.919 7.3989 78.1875 7.23547C78.7094 6.92347 78.7243 6.16575 78.6498 5.76461C78.4857 4.9029 77.6506 4.21947 76.8304 4.05604C75.4286 3.78861 73.8031 5.02175 73.5198 6.41833C73.0575 8.70633 75.876 10.4743 76.0699 10.5932C78.098 11.7966 80.2454 11.2469 80.7077 11.1132Z" fill="#799D99"/>
<path d="M41.2486 2.49592C39.6679 1.45592 37.0283 2.1245 35.5072 2.97135C33.6133 4.02621 32.0773 6.35878 33.1212 8.52792C34.016 10.3851 36.0739 10.8159 37.8784 10.0731C39.0266 9.59764 39.4889 8.45364 39.0416 7.79992C38.7582 7.39878 38.0722 7.19078 37.5503 7.33935C37.431 7.36907 37.2222 7.4285 37.1476 7.59192C37.0283 7.8445 37.3713 8.06735 37.3713 8.42392C37.3713 8.85478 36.8941 9.35992 36.4617 9.4045C35.716 9.46392 34.9256 8.17135 34.7467 7.05707C34.5976 6.09135 34.9107 5.09592 35.4774 4.3085C36.6257 2.70392 38.3407 2.59992 40.1898 2.71878C40.3241 2.73364 41.3232 2.55535 41.2486 2.49592Z" fill="#799D99"/>
<path d="M53.4323 1.33714C53.4323 2.08 52.8358 2.67429 52.0902 2.67429C51.3446 2.67429 50.748 2.08 50.748 1.33714C50.748 0.594286 51.3446 0 52.0902 0C52.8358 0 53.4323 0.594286 53.4323 1.33714Z" fill="#799D99"/>
<path d="M59.472 7.13133C59.472 7.87419 58.8755 8.46847 58.1299 8.46847C57.3842 8.46847 56.7877 7.87419 56.7877 7.13133C56.7877 6.38848 57.3842 5.79419 58.1299 5.79419C58.8606 5.79419 59.472 6.40333 59.472 7.13133Z" fill="#799D99"/>
<path d="M173.659 2.19878C171.824 1.79764 169.781 2.82278 169.677 4.24907C169.617 5.0365 170.065 6.03193 170.87 6.29935C171.467 6.50735 172.257 6.29936 172.346 5.95764C172.466 5.52678 171.273 5.17021 171.347 4.45707C171.392 4.11535 171.645 3.80335 172.152 3.4765C174.166 2.2285 174.568 4.88793 173.987 6.29935C172.6 9.7165 167.858 9.73135 164.771 9.12221C160.491 8.2605 156.733 5.79421 152.826 3.96678C147.084 1.27764 141.238 0.267354 135.139 2.13935C132.753 2.86735 130.099 3.96678 127.906 5.48221C126.191 4.26393 123.91 3.66964 121.956 3.50621C117.363 3.13478 113.038 5.05135 109.027 7.02735C101.779 10.5782 99.9451 11.2468 96.5599 10.8754C93.9203 10.5782 90.2071 9.33021 89.7 7.14621C89.6702 7.02735 89.4465 5.98735 90.043 5.30393C90.8036 4.42735 92.5484 4.50164 92.9361 5.1405C93.2791 5.70507 92.5484 6.5965 92.9957 7.02735C93.2045 7.2205 93.5028 7.19078 93.5475 7.19078C94.0396 7.14621 94.3379 6.61135 94.4572 6.41821C94.7554 5.88335 94.8896 5.06621 94.5765 4.44221C93.9203 3.10507 91.4299 2.97135 89.879 3.81821C85.5543 6.21021 89.193 10.2811 92.5185 11.2765C96.6046 12.4948 101.153 11.3359 104.971 9.74621C111.264 7.13135 120.39 0.609068 126.698 6.43307C126.206 6.86393 125.744 7.30964 125.327 7.78507C123.582 9.83535 124.029 13.1039 127.25 12.9256C129.741 12.7919 131.113 10.6674 130.203 8.30507C129.845 7.38393 129.263 6.62621 128.548 6.00221C130.889 4.18964 134.349 2.91193 136.362 2.36221C141.283 0.995354 146.189 2.2285 150.753 4.3085C157.359 7.3245 164.666 12.2719 172.227 9.15193C174.882 8.0525 178.401 3.25364 173.659 2.19878ZM128.682 10.3108C128.369 11.6331 126.877 12.5542 126.206 10.6822C126.013 10.1474 126.087 9.52335 126.236 8.9885C126.43 8.31993 126.833 7.68107 127.37 7.08678C128.041 7.88907 128.92 9.28564 128.682 10.3108Z" fill="#799D99"/>
<path d="M93.8607 11.2617C93.8905 11.3806 96.6643 11.3954 99.1697 10.0137C100.035 9.53827 101.914 8.49827 102.093 6.77485C102.107 6.55199 102.152 5.77942 101.66 5.09599C101.108 4.32342 100.094 3.93713 99.0056 4.13027C98.1407 4.2937 96.5003 5.15542 96.5748 6.1657C96.6047 6.53713 96.8433 6.80456 96.9029 6.84913C97.3056 7.26513 98.0512 7.35427 98.2152 7.11656C98.3793 6.87885 97.8275 6.50742 97.9319 5.94285C98.0065 5.5417 98.4091 5.18513 98.8416 5.09599C99.4232 4.97713 99.9302 5.36342 100.169 5.71999C100.616 6.41827 100.199 7.33942 100.094 7.59199C99.2591 9.46399 96.6941 10.3257 94.5914 11.024C94.0844 11.1726 93.8607 11.232 93.8607 11.2617Z" fill="#799D99"/>
<path d="M134.289 2.70404C136.645 2.43661 139.225 3.4469 140.001 5.88347C140.284 6.78975 140.254 7.78518 139.762 8.61718C139.583 8.94404 139.27 9.52347 138.688 9.56804C138.137 9.61261 137.525 9.1669 137.51 8.72118C137.48 8.11204 138.554 7.74061 138.435 7.41375C138.36 7.1909 137.794 7.17604 137.421 7.23547C136.571 7.35432 135.557 8.03775 135.542 8.88461C135.527 9.38975 135.885 9.77604 135.93 9.82061C137.152 11.1875 139.896 10.2218 140.985 9.1669C142.789 7.41375 142.178 4.68004 140.314 3.20918C138.42 1.72347 135.87 1.7829 133.708 2.60004C133.439 2.70404 134.229 2.70404 134.289 2.70404Z" fill="#799D99"/>
<path d="M122.15 1.33714C122.15 2.08 122.747 2.67429 123.492 2.67429C124.238 2.67429 124.834 2.08 124.834 1.33714C124.834 0.594286 124.238 0 123.492 0C122.747 0 122.15 0.594286 122.15 1.33714Z" fill="#799D99"/>
<path d="M116.11 7.13133C116.11 7.87419 116.707 8.46847 117.453 8.46847C118.198 8.46847 118.795 7.87419 118.795 7.13133C118.795 6.38848 118.198 5.79419 117.453 5.79419C116.707 5.79419 116.11 6.40333 116.11 7.13133Z" fill="#799D99"/>
<path d="M89.4465 2.2285C89.4465 2.97136 88.85 3.56564 88.1044 3.56564C87.3587 3.56564 86.7622 2.97136 86.7622 2.2285C86.7622 1.48564 87.3587 0.891357 88.1044 0.891357C88.85 0.891357 89.4465 1.48564 89.4465 2.2285Z" fill="#799D99"/>
</g>
<defs>
<clipPath id="clip0_1_589">
<rect width="176" height="13" fill="white"/>
</clipPath>
</defs>
</svg>
